<?xml version="1.0" standalone="no"?>
<!DOCTYPE svg PUBLIC "-//W3C//DTD SVG 1.1//EN" "http://www.w3.org/Graphics/SVG/1.1/DTD/svg11.dtd" >
<!--
2013-9-30: Created.
-->
<svg>
<metadata>
Created by iconfont
</metadata>
<defs>

<font id="iconfont" horiz-adv-x="1024" >
  <font-face
    font-family="iconfont"
    font-weight="500"
    font-stretch="normal"
    units-per-em="1024"
    ascent="896"
    descent="-128"
  />
    <missing-glyph />
    
    <glyph glyph-name="msnui-alarm-inverse" unicode="&#58935;" d="M608.488 734.233q2.723-4.541 18.615-31.329t39.956-67.653 54.031-92.625 61.751-105.792 63.112-107.155 57.209-97.619 44.497-76.279 25.88-43.588q13.622-22.702 16.8-45.404t-2.723-40.865-20.887-29.513-36.778-10.443q-10.898 0-46.312 0.455t-85.361 0.455h-241.551q-65.382 0-129.856-0.455t-119.867-0.455h-158.915q-34.508 0-53.123 11.806t-24.973 30.421-1.363 40.41 17.708 40.865q6.356 9.988 24.973 40.865t44.95 74.918 58.118 97.166 64.474 108.062 63.566 106.7 55.394 93.533 40.865 69.015l19.070 31.783q12.713 19.978 33.145 30.421t42.225 10.443 42.225-9.535 33.145-28.606zM585.785 556.248q0 10.898-4.995 20.432t-13.167 17.254-18.615 12.259-21.339 4.541q-20.887 0-38.594-16.345t-17.708-37.231v-237.918q0-20.887 17.708-37.686t38.594-16.8q21.794 0 39.956 15.892t18.162 36.778v238.828zM527.666 211.174q-23.61 0-40.41-16.345t-16.8-39.956 16.8-40.41 40.41-16.8 39.956 16.8 16.345 40.41-16.345 39.956-39.956 16.345z"  horiz-adv-x="1052" />

    
    <glyph glyph-name="selectfill" unicode="&#58976;" d="M512 768C300.8 768 128 595.2 128 384s172.8-384 384-384 384 172.8 384 384S723.2 768 512 768zM729.6 486.4l-256-256c-6.4-6.4-12.8-6.4-25.6-6.4s-19.2 0-25.6 6.4l-128 128c-12.8 12.8-12.8 32 0 44.8s32 12.8 44.8 0L448 300.8l230.4 230.4c12.8 12.8 32 12.8 44.8 0S736 499.2 729.6 486.4z"  horiz-adv-x="1024" />

    
    <glyph glyph-name="selected-fill" unicode="&#59063;" d="M879.74496013 889.64932015L144.25503987 889.64932015C70.70604786 889.64932015 6.35067985 825.29395214 6.35067985 751.74496013l0-735.48992026c0-73.54899201 64.35536803-137.90436005 137.90436002-137.90436002l735.48992026 0c73.54899201 0 137.90436005 64.35536803 137.90436002 137.90436002L1017.64932015 751.74496013C1017.64932015 825.29395214 953.29395214 889.64932015 879.74496013 889.64932015zM824.58321611 531.09798406l-367.74496014-367.74496012c-9.19362398-9.19362398-18.38724802-9.19362398-36.77449601-9.193624s-27.58087197 0-36.774496 9.193624l-183.87248007 183.87248007c-18.38724802 18.38724802-18.38724802 45.96812001 0 64.35536796s45.96812001 18.38724802 64.35536803 0L420.06375996 264.48288797l330.97046409 330.97046409c18.38724802 18.38724802 45.96812001 18.38724802 64.35536803 0S833.77684011 549.4852320499999 824.58321611 531.09798406z"  horiz-adv-x="1024" />

    
    <glyph glyph-name="danxuanfill" unicode="&#59166;" d="M512 830.016611c-245.919634 0-446.016611-200.095256-446.016611-446.016611 0-245.952318 200.064292-446.016611 446.016611-446.016611S958.016611 138.047682 958.016611 384C958.016611 629.919634 757.952318 830.016611 512 830.016611zM512 223.99914c-88.223841 0-160.00086 71.775299-160.00086 160.00086s71.775299 159.99914 160.00086 159.99914 160.00086-71.775299 160.00086-159.99914S600.223841 223.99914 512 223.99914z"  horiz-adv-x="1024" />

    
    <glyph glyph-name="guanbi2fill" unicode="&#59172;" d="M512 832c-247.00852 0-448-200.960516-448-448S264.960516-64 512-64c247.00852 0 448 200.960516 448 448S759.039484 832 512 832zM694.752211 246.015966c12.480043-12.54369 12.447359-32.768069-0.063647-45.248112-6.239161-6.208198-14.399785-9.34412-22.591372-9.34412-8.224271 0-16.415858 3.135923-22.65674 9.407768l-137.60043 138.016718-138.047682-136.576912c-6.239161-6.14455-14.368821-9.247789-22.496761-9.247789-8.255235 0-16.479505 3.168606-22.751351 9.504099-12.416396 12.576374-12.320065 32.800753 0.25631 45.248112l137.887703 136.384249-137.376804 137.824056c-12.480043 12.512727-12.447359 32.768069 0.063647 45.248112 12.512727 12.512727 32.735385 12.447359 45.248112-0.063647l137.567746-137.984034 138.047682 136.575192c12.54369 12.447359 32.831716 12.320065 45.248112-0.25631 12.447359-12.576374 12.320065-32.831716-0.25631-45.248112L557.344443 383.872705 694.752211 246.015966z"  horiz-adv-x="1024" />

    
    <glyph glyph-name="salefill" unicode="&#59274;" d="M960.354779 316.82849c0 29.242399-11.524945 57.108685-31.478582 76.374265L616.326558 712.460944c-70.697799 69.321687-121.613976 119.377793-208.997144 119.377793l-142.083655 0C92.543591 831.838737 63.473207 768.36553 63.473207 625.937846l0-154.296657c0-79.642533 15.48127-103.208466 76.202251-161.865278l352.456912-343.168151c39.391231-38.015118 114.045355-38.015118 153.436587-0.172014l283.651268 274.53452C949.001848 260.063833 960.354779 287.758105 960.354779 316.82849zM410.08164 574.505627c0-56.764656-46.44381-103.036452-103.552495-103.036452S202.97665 517.740971 202.97665 574.505627s46.44381 103.036452 103.552495 103.036452S410.08164 631.270284 410.08164 574.505627z"  horiz-adv-x="1024" />

    
    <glyph glyph-name="users" unicode="&#58919;" d="M478.346 267.50199999999995q-1.792-9.858-4.481-15.235t-12.546-11.65q-23.3-14.339-50.184-23.3t-51.528-19.715-43.015-28.228-22.851-49.735q-1.792-9.858-2.24-19.267t-1.344-17.474q-0.896-1.792-1.792-3.136t-1.792-3.136q-34.95 2.689-70.795 6.274t-65.866 8.066-50.632 8.961-25.989 8.961q-8.066 6.274-12.098 37.638t3.136 81.549q4.481 27.781 22.851 42.567t43.463 23.3 51.528 15.683 47.048 19.715q16.13 10.754 24.644 19.715t12.098 18.371 3.585 19.267-0.896 21.508q-1.792 17.923-12.098 28.228t-22.851 21.059q-7.169 4.481-12.098 14.339t-8.513 19.715q-3.585 10.754-7.169 24.196-5.376 1.792-10.754 5.376-4.481 3.585-9.41 10.754t-9.41 19.715-3.585 23.748 4.481 19.267q3.585 9.858 9.858 16.13-0.896 28.676 2.689 58.249 3.585 24.196 11.65 51.977t24.196 50.184q14.339 21.508 32.261 34.95t36.294 21.059 37.189 10.305 36.743 2.689q44.807 0 80.653-18.82t53.768-40.327q11.65-15.235 14.786-28.228t8.513-30.02q-17.027-9.858-36.294-29.125t-33.605-38.982q-17.923-25.092-26.884-55.56t-13.443-56.458q-4.481-31.365-4.481-62.729-7.169-8.066-10.754-17.923-3.585-8.961-4.481-21.059t3.585-26.435q4.481-15.235 9.858-23.3t9.858-12.546q5.376-5.376 10.754-7.169 3.585-14.339 7.169-26.884 3.585-10.754 8.513-21.955t12.098-16.579q6.274-5.376 9.858-8.961t5.825-6.721 2.689-8.513 2.241-14.339zM955.988 102.61199999999997q3.585-12.546 5.825-30.469t2.24-36.294-2.689-34.501-8.066-24.196q-3.585-5.376-21.059-10.754t-43.463-9.858-57.353-8.513-63.178-6.721-61.385-4.481-51.977-1.792-51.528 1.792-60.489 4.481-61.834 5.825-56.009 7.169-43.014 8.066-21.955 7.617q-7.169 6.274-11.65 37.638t2.689 80.653q4.481 28.676 22.851 43.015t43.463 23.3 51.528 15.683 47.048 20.164q16.13 10.754 24.644 19.715t12.546 17.923 4.033 18.819-0.896 22.404q-1.792 17.923-12.546 28.228t-23.3 20.164q-6.274 5.376-11.202 15.235t-8.513 19.715q-3.585 10.754-7.169 24.196-5.376 1.792-10.754 5.376-4.481 3.585-9.41 10.754t-9.41 19.715-3.585 23.748 4.481 18.371q3.585 8.961 9.858 16.13-0.896 28.676 2.689 58.249 3.585 25.092 11.202 52.424t23.748 50.632q14.339 21.508 32.261 34.95t36.743 21.059 37.638 10.305 35.845 2.689q45.704 0 81.549-18.819t52.873-40.327q19.715-24.196 29.125-54.217t13.89-56.009q4.481-30.469 3.585-60.938 4.481-3.585 8.066-9.858 2.689-5.376 4.929-13.89t0.449-21.059q-1.792-16.13-7.169-25.989t-10.754-15.235q-6.274-6.274-14.339-8.066-3.585-13.443-7.169-24.196-3.585-9.858-8.961-19.715t-11.65-14.339q-7.169-6.274-12.994-10.754t-10.305-9.41-7.617-11.202-4.929-15.235q-1.792-11.65-1.344-23.748t5.825-23.748 17.474-22.404 33.605-18.819q18.819-8.066 41.67-13.89t43.911-13.89 37.638-20.611 23.748-32.261z"  horiz-adv-x="1030" />

    
    <glyph glyph-name="select-circle" unicode="&#59026;" d="M512.62536078-123.72799716999998c-278.93451051 0-505.04373319 226.88207424-505.04373318 506.76642521s226.1092227 506.76642518 505.04373318 506.76642517c278.92271125 0 505.04373319-226.88207424 505.04373319-506.76642517S791.55397166-123.72799716999998 512.62536078-123.72799716999998zM509.89973171 810.98579527c-235.418839 0-426.23647449-191.48429372-426.23647453-427.69958278 0-236.2093894 190.81763553-427.69958276 426.23647453-427.69958274 235.37754157 0 426.21877562 191.49609299 426.21877561 427.69958274C936.11850732 619.5015015399999 745.27727325 810.98579527 509.89973171 810.98579527z"  horiz-adv-x="1024" />

    
    <glyph glyph-name="attach" unicode="&#59096;" d="M346.585 173.292c11.815-11.815 29.538-9.846 41.354 0l196.923 196.923c13.785 13.785 37.415 15.754 55.138 0 17.723-15.754 15.754-43.323 0-59.077l-242.215-238.277c-53.169-53.169-141.785-53.169-194.954 0l-1.969 1.969c-53.169 53.169-53.169 141.785 0 194.954l427.323 427.323c53.169 53.169 141.785 53.169 194.954 0l1.969-1.969c53.169-53.169 53.169-141.785 0-194.954l-1.969-1.969c-9.846-9.846-11.815-23.631-3.938-35.446 11.815-21.662 21.662-45.292 27.569-68.923 3.938-15.754 21.662-19.692 33.477-9.846 15.754 15.754 29.538 31.508 29.538 31.508 100.431 100.431 100.431 263.877 0 364.308h-3.938c-100.431 100.431-263.877 100.431-364.308-0l-427.323-425.354c-100.431-100.431-100.431-263.877 0-364.308l3.938-3.938c100.431-100.431 261.908-100.431 362.338 0l244.185 242.215c63.015 63.015 61.046 165.415-3.938 228.431-63.015 61.046-165.415 57.108-226.462-5.908l-192.985-192.985c-11.815-11.815-11.815-31.508 0-43.323l45.292-41.354z"  horiz-adv-x="1024" />

    
    <glyph glyph-name="select-box" unicode="&#58957;" d="M849.04399775-121.08514112h-674.0901937c-92.65728634 0-168.03674695 72.91748037-168.03674697 162.54565172v685.07458241c0 89.63036955 75.38165881 162.54565173 168.03674697 162.54565173h674.0901937c92.65728634 0 168.03674695-72.91638128 168.03674699-162.54565173v-685.07458241c0-89.62927045-75.38165881-162.54565173-168.03674699-162.54565172zM174.95600225 811.37888935c-49.80893802 0-90.33489157-38.0595769-90.3348916-84.84049905v-685.07458239c0-46.78202124 40.52265624-84.84049903 90.3348916-84.84049906h674.0901937c49.80893802 0 90.33489157 38.05847781 90.33489158 84.84049906v685.07458239c0 46.78092212-40.52265624 84.84049903-90.33489158 84.84049905h-674.0901937z"  horiz-adv-x="1024" />

    
    <glyph glyph-name="home" unicode="&#59150;" d="M888 433.6L544 753.6c-19.2 17.6-48 17.6-65.6 0l-344-320c-9.6-9.6-16-22.4-16-35.2v-355.2c0-27.2 22.4-49.6 49.6-49.6h683.2c27.2 0 49.6 22.4 49.6 49.6V398.4c3.2 12.8-3.2 25.6-12.8 35.2z m-32-392c0-1.6-1.6-1.6-1.6-1.6h-240V238.39999999999998c0 56-46.4 102.4-102.4 102.4-56 0-102.4-46.4-102.4-102.4v-198.4h-240c-1.6 0-1.6 1.6-1.6 1.6V398.4l344 320 344-320v-356.8z"  horiz-adv-x="1024" />

    
    <glyph glyph-name="selected-circle" unicode="&#58909;" d="M192 384a320 320 0 1 1 640 0 320 320 0 1 1-640 0zM512 896C228.267 896 0 667.733 0 384s228.267-512 512-512 512 228.267 512 512S795.733 896 512 896z m0-981.333C251.733-85.33299999999997 42.667 123.73299999999995 42.667 384S251.733 853.333 512 853.333 981.333 642.133 981.333 384 772.267-85.33299999999997 512-85.33299999999997z"  horiz-adv-x="1024" />

    
    <glyph glyph-name="icons_doctype_attach" unicode="&#58888;" d="M142.994286 896C97.938286 896 60.952381 860.793905 60.952381 815.993905v-862.390857C60.952381-91.196952 97.950476-128 142.994286-128h736.670476c45.031619 0 82.029714 36.803048 82.029714 81.603048V571.196952L657.67619 896H142.994286zM961.694476 569.6v-16.006095H755.809524s-101.339429 20.809143-99.718095 108.8c0 0 4.815238-92.793905 98.108952-92.793905h207.481905zM657.688381 896v-233.606095c0-25.6 17.700571-92.793905 98.121143-92.793905h205.884952L657.67619 896zM488.801524 231.996952a49.176381 49.176381 0 0 1 0 67.206096c-17.688381 19.2-48.249905 17.603048-65.950476 0L274.895238 152.003048c-17.700571-17.603048-17.700571-48.006095 0-65.596953 17.688381-17.603048 48.249905-19.2 65.950476 0l91.672381 89.6a12.507429 12.507429 0 0 1 0 17.590857c-4.827429 4.803048-14.470095 6.4-19.297524 0l-57.904761-55.990857c-8.045714-8.009143-19.309714-8.009143-27.343239 0a20.199619 20.199619 0 0 0 0 28.793905l56.295619 56.003048a53.589333 53.589333 0 0 0 75.593143 0 52.906667 52.906667 0 0 0 0-75.203048l-90.075428-89.6c-33.767619-33.596952-88.466286-33.596952-123.855238 0a85.625905 85.625905 0 0 0 0 121.6l147.992381 147.2c33.767619 33.596952 90.063238 33.596952 123.855238 0a85.625905 85.625905 0 0 0 0-121.6l-14.482286-14.396952c-1.609143 14.396952-6.436571 28.793905-16.091429 41.593904h1.609143z"  horiz-adv-x="1024" />

    
    <glyph glyph-name="icons_doctyp_zip" unicode="&#58889;" d="M143.11619 896C98.011429 896 60.952381 860.793905 60.952381 815.993905v-862.390857C60.952381-91.196952 98.011429-128 143.11619-128h737.76762c45.104762 0 82.16381 36.803048 82.163809 81.603048V571.196952L658.590476 896H143.104zM963.047619 570.806857V554.666667H757.74781s-101.046857 20.967619-99.437715 109.714285c0 0 4.803048-93.574095 97.828572-93.574095H963.047619zM658.285714 896v-235.568762C658.285714 634.63619 676.022857 566.857143 756.650667 566.857143H963.047619L658.285714 896zM352.987429 32.073143h-120.685715c-6.436571 0-12.873143 4.803048-12.873143 12.8 0 3.193905 1.609143 6.38781 3.218286 7.984762l106.203429 150.28419h-99.766857c-4.827429 0-9.654857 4.790857-9.654858 11.190857 0 4.790857 4.827429 9.593905 9.654858 9.593905h120.685714c6.436571 0 11.264-4.803048 11.264-12.8 0-3.193905 0-6.38781-1.609143-7.984762L251.611429 52.857905h101.376c6.436571 0 11.264-4.790857 11.264-9.593905a10.971429 10.971429 0 0 0-11.264-11.190857z m64.365714-1.596953a10.971429 10.971429 0 0 0-11.264 11.190858V214.332952c0 6.4 4.827429 11.190857 12.873143 11.190858a10.971429 10.971429 0 0 0 11.264-11.190858v-172.665904c0-6.4-4.827429-11.190857-12.873143-11.190858z m143.213714 78.336h-53.101714v-67.145142c0-6.4-6.436571-11.190857-12.873143-11.190858a10.971429 10.971429 0 0 0-11.264 11.190858V206.336c0 9.593905 6.436571 17.590857 16.091429 17.590857h61.147428c38.619429 0 61.147429-27.184762 61.147429-57.551238 0-30.378667-22.528-57.563429-61.147429-57.563429z m-3.218286 94.329905h-49.883428v-73.545143h49.883428c22.528 0 38.619429 14.384762 38.619429 36.778667 0 20.772571-16.091429 36.766476-38.619429 36.766476z"  horiz-adv-x="1024" />

    
    <glyph glyph-name="icons_doctype_audio" unicode="&#58890;" d="M144.591238 896C99.559619 896 62.549333 859.196952 62.549333 814.396952v-860.793904C62.561524-91.196952 99.57181-128 144.603429-128H879.664762c45.031619 0 82.029714 36.803048 82.029714 81.603048V571.196952L657.67619 896H144.591238zM961.694476 569.6v-16.006095H755.809524s-101.339429 20.809143-98.121143 108.8c0 0 3.218286-92.793905 96.512-92.793905h207.481905zM657.688381 896v-233.606095c0-25.6 17.700571-92.793905 98.121143-92.793905h205.884952L657.67619 896zM540.281905 352l-228.412953-30.403048v-214.393904c-11.25181 3.193905-25.721905 4.803048-40.20419 1.596952-32.182857-6.4-53.077333-27.196952-46.652952-46.396952 6.436571-20.809143 36.998095-30.403048 69.168761-24.003048 28.952381 4.803048 48.249905 22.393905 48.249905 39.996952V249.6l167.289905 20.796952v-132.790857c-11.264 3.193905-25.746286 3.193905-40.228571 0-33.767619-6.4-54.674286-27.209143-48.237715-46.409143 6.424381-19.2 36.985905-30.390857 70.765715-23.990857 28.952381 6.38781 49.859048 23.990857 48.249904 41.593905v243.2z"  horiz-adv-x="1024" />

    
    <glyph glyph-name="icons_doctype_csv" unicode="&#58891;" d="M142.994286 896C97.938286 896 60.952381 859.196952 60.952381 814.396952v-860.793904C60.952381-91.196952 97.950476-128 142.994286-128h736.670476c45.031619 0 82.029714 36.803048 82.029714 81.603048V571.196952L656.079238 896H142.994286zM387.474286 204.8a12.190476 12.190476 0 0 0 3.218285-7.996952 10.971429 10.971429 0 0 0-11.264-11.203048c-3.218286 0-6.436571 0-8.045714 3.193905-11.25181 12.8-30.561524 22.406095-48.249905 22.406095-41.813333 0-73.99619-32-73.99619-78.396952 0-44.8 32.182857-78.396952 73.99619-78.396953 17.688381 0 35.388952 7.996952 48.249905 22.393905a12.312381 12.312381 0 0 0 8.045714 3.206095 10.971429 10.971429 0 0 0 11.264-11.215238 12.190476 12.190476 0 0 0-3.218285-7.996952c-14.482286-15.993905-35.388952-27.184762-64.341334-27.184762-56.295619 0-99.718095 39.984762-99.718095 99.193905 0 59.196952 43.422476 99.193905 99.718095 99.193904 28.952381 0 49.859048-11.203048 64.341334-27.196952z m109.372952-171.203048c-28.952381 0-51.46819 9.606095-67.559619 24.003048-3.218286 1.596952-3.218286 4.803048-3.218286 7.996952 0 6.4 3.218286 12.8 11.264 12.8 1.609143 0 4.827429-1.596952 6.436572-3.193904 12.860952-11.203048 32.170667-20.796952 54.686476-20.796953 33.767619 0 45.031619 19.2 45.031619 33.596953 0 49.603048-114.200381 22.393905-114.200381 91.196952 0 30.403048 27.343238 52.796952 65.950476 52.796952 24.137143 0 46.640762-7.996952 62.732191-20.796952a12.190476 12.190476 0 0 0 3.218285-7.996952 10.971429 10.971429 0 0 0-11.264-11.203048c-1.609143 0-4.827429 0-6.436571 1.596952-14.470095 11.203048-32.170667 17.603048-49.859048 17.603048-24.137143 0-40.216381-12.8-40.216381-30.403048 0-43.203048 114.200381-19.2 114.200381-91.196952 0-27.196952-19.297524-56.003048-70.765714-56.003048z m273.432381 179.2l-67.547429-164.803047c-3.218286-7.996952-9.654857-12.8-17.700571-12.8h-1.609143c-8.045714 0-16.079238 4.803048-19.297524 12.8l-65.950476 164.815238c-1.609143 1.584762-1.609143 3.193905-1.609143 4.790857 0 6.4 4.827429 12.8 12.873143 12.8 4.827429 0 9.654857-3.193905 11.264-7.996952l62.72-160 62.732191 160a12.092952 12.092952 0 0 0 11.264 7.996952c8.045714 0 14.470095-6.4 14.470095-12.8 0-1.596952-1.609143-3.206095-1.609143-4.803048zM961.694476 569.6v-16.006095H755.809524s-101.339429 20.809143-98.121143 108.8c0 0 3.218286-92.793905 96.512-92.793905h207.481905zM657.688381 896v-233.606095c0-25.6 17.700571-92.793905 98.121143-92.793905h205.884952L657.67619 896z"  horiz-adv-x="1024" />

    
    <glyph glyph-name="icons_doctype_eps" unicode="&#58892;" d="M142.994286 896C97.938286 896 60.952381 859.196952 60.952381 814.396952v-860.793904C60.952381-91.196952 97.950476-128 142.994286-128h736.670476c45.031619 0 82.029714 36.803048 82.029714 81.603048V571.196952L657.67619 896H142.994286zM340.821333 33.596952h-99.718095a17.798095 17.798095 0 0 0-17.700571 17.603048V207.993905c0 9.606095 8.045714 17.603048 17.700571 17.603047h99.718095a10.971429 10.971429 0 0 0 11.264-11.203047c0-4.790857-4.827429-9.593905-11.264-9.593905h-93.281523v-62.403048h91.67238a10.971429 10.971429 0 0 0 11.264-11.190857c0-4.803048-4.827429-9.606095-11.264-9.606095h-91.67238v-67.193905h93.281523c6.436571 0 11.264-4.803048 11.264-9.606095a10.971429 10.971429 0 0 0-11.264-11.203048z m131.900953 76.8h-53.077334v-67.193904a10.971429 10.971429 0 0 0-11.264-11.203048c-8.045714 0-12.873143 4.803048-12.873142 11.203048V208.006095c0 9.593905 8.045714 17.590857 17.700571 17.590857h59.513905c40.20419 0 61.123048-27.196952 61.123047-57.6 0-32-22.528-57.6-61.123047-57.6z m-1.609143 94.403048h-51.468191v-73.593905h51.468191c22.51581 0 38.595048 14.384762 38.595047 36.790857 0 20.796952-16.079238 36.803048-38.595047 36.803048z m164.059428-174.396952c-28.952381 0-51.46819 9.593905-67.547428 24.003047-3.218286 1.584762-3.218286 4.790857-3.218286 7.996953 0 6.4 3.218286 12.8 11.25181 12.8 1.609143 0 4.827429-1.609143 6.436571-3.206096 12.873143-11.203048 32.170667-20.796952 54.686476-20.796952 33.767619 0 45.04381 19.2 45.04381 33.596952 0 49.603048-114.200381 22.406095-114.200381 91.196953 0 30.403048 28.94019 52.809143 65.950476 52.809143 25.721905 0 46.640762-8.009143 62.72-20.796953a12.190476 12.190476 0 0 0 3.218286-8.009143c0-6.4-4.827429-12.8-11.264-12.8-1.609143 0-4.815238 1.596952-6.424381 3.206096-14.482286 11.203048-32.182857 15.993905-49.859048 15.993904-22.528 0-40.228571-11.190857-40.228571-30.390857 0-43.203048 114.212571-17.603048 114.212571-89.6 0-27.209143-17.700571-56.003048-70.777905-56.003047zM961.694476 569.6v-16.006095H755.809524c-38.607238 0-101.339429 20.809143-98.121143 108.8 0 0 3.218286-92.793905 96.512-92.793905h207.481905zM657.688381 896v-233.606095c0-25.6 17.700571-92.793905 98.121143-92.793905h205.884952L657.67619 896z"  horiz-adv-x="1024" />

    
    <glyph glyph-name="icons_doctype_exe" unicode="&#58894;" d="M142.994286 896C97.938286 896 60.952381 859.196952 60.952381 814.396952v-860.793904C60.952381-91.196952 97.950476-128 142.994286-128h736.670476c45.031619 0 82.029714 36.803048 82.029714 81.603048V571.196952L657.67619 896H142.994286zM961.694476 569.6v-16.006095H755.809524s-101.339429 20.809143-99.718095 107.203047c0 0 3.206095-91.196952 96.499809-91.196952H961.706667zM657.688381 896v-233.606095c0-25.6 17.700571-92.793905 98.121143-92.793905h205.884952L657.67619 896zM342.430476 33.596952h-101.327238a17.798095 17.798095 0 0 0-17.700571 17.603048V207.993905c0 9.606095 8.045714 17.603048 17.700571 17.603047h101.327238c4.827429 0 9.654857-4.803048 9.654857-11.203047s-4.827429-9.593905-9.654857-9.593905h-94.890666v-62.403048h91.67238a10.971429 10.971429 0 0 0 11.264-11.190857c0-6.41219-4.827429-9.606095-11.264-9.606095h-91.67238v-67.193905h94.890666c4.827429 0 9.654857-4.803048 9.654857-9.606095 0-6.4-4.827429-11.203048-9.654857-11.203048z m194.633143-1.596952c-4.827429 0-8.045714 0-9.654857 3.206095l-59.513905 79.993905-61.123047-80.006095c-1.609143-3.193905-4.827429-3.193905-8.045715-3.193905a10.971429 10.971429 0 0 0-11.251809 11.203048c0 1.596952 0 4.803048 1.609143 6.4l62.72 81.603047-57.904762 78.384762c-1.596952 1.609143-3.206095 3.206095-3.206096 6.412191 0 4.790857 4.815238 11.203048 12.860953 11.203047 3.218286 0 6.436571-1.609143 8.045714-4.803047l56.295619-73.606096 54.686476 73.606096c1.609143 3.193905 4.827429 4.803048 9.654857 4.803047s11.25181-4.803048 11.25181-11.215238c0-3.193905 0-4.790857-1.609143-6.387809l-57.904762-76.8 61.123048-83.2c1.609143-1.609143 3.218286-4.803048 3.218286-6.4 0-6.4-6.436571-11.203048-11.25181-11.203048z m172.105143 1.596952h-99.718095a17.798095 17.798095 0 0 0-17.700572 17.603048V207.993905c0 9.606095 8.045714 17.603048 17.688381 17.603047h99.718095a10.971429 10.971429 0 0 0 11.264-11.203047c0-6.4-4.827429-9.593905-11.251809-9.593905H615.862857v-62.403048h91.672381a10.971429 10.971429 0 0 0 11.264-11.190857c0-6.41219-4.827429-9.606095-11.251809-9.606095H615.862857v-67.193905h93.293714c6.424381 0 11.25181-4.803048 11.25181-9.606095a10.971429 10.971429 0 0 0-11.25181-11.203048z"  horiz-adv-x="1024" />

    
    <glyph glyph-name="icons_doctype_image" unicode="&#58895;" d="M142.994286 896C97.938286 896 62.549333 859.196952 62.549333 814.396952v-862.403047C62.561524-92.793905 97.950476-128 142.982095-128h736.670476c45.04381 0 82.041905 35.206095 82.041905 80.006095V569.58781L657.67619 896H142.994286zM961.694476 569.6v-16.006095H755.809524s-101.339429 20.809143-99.718095 108.8c0 0 4.815238-92.793905 98.108952-92.793905h207.481905zM657.688381 896v-233.606095c0-25.6 17.700571-92.793905 98.121143-92.793905h205.884952L657.67619 896zM223.402667 36.803048V371.2h336.176762v-334.396952H223.402667z m302.396952 300.8H257.182476v-201.606096h268.617143V337.603048zM371.382857 203.203048l62.732191 84.796952 20.906666-33.596952 20.918857 6.4 16.091429-89.6H281.295238l56.295619 52.796952 33.77981-20.796952z m-61.123047 59.196952c-14.470095 0-27.343238 9.606095-27.343239 24.003048 0 12.8 12.873143 23.990857 27.343239 23.990857 14.482286 0 25.734095-11.190857 25.734095-23.990857 0-14.396952-11.25181-24.003048-25.721905-24.003048z"  horiz-adv-x="1024" />

    
    <glyph glyph-name="icons_doctype_flash" unicode="&#58896;" d="M142.994286 896C97.938286 896 60.952381 859.196952 60.952381 814.396952v-860.793904C60.952381-91.196952 97.950476-128 142.994286-128h736.670476c45.031619 0 82.029714 36.803048 82.029714 81.603048V571.196952L657.67619 896H142.994286zM961.694476 571.196952v-15.993904H755.809524s-101.339429 19.2-99.718095 107.190857c0 0 3.206095-91.184762 96.499809-91.184762H961.706667zM657.688381 896v-233.606095c0-25.6 17.700571-91.184762 98.121143-91.184762h205.884952L657.67619 896zM342.430476 206.396952h-94.890666v-62.390857h91.67238a10.971429 10.971429 0 0 0 11.264-11.215238c0-4.790857-4.827429-9.593905-11.264-9.593905h-91.67238v-78.396952a10.971429 10.971429 0 0 0-11.264-11.203048c-6.436571 0-12.873143 4.803048-12.873143 11.203048V209.603048c0 9.593905 8.045714 17.603048 17.700571 17.603047h101.327238c4.827429 0 9.654857-4.803048 9.654857-11.215238 0-4.790857-4.827429-9.593905-9.654857-9.593905z m152.807619-171.190857H408.380952a17.798095 17.798095 0 0 0-17.688381 17.590857V217.6c0 6.4 4.815238 11.203048 12.860953 11.203048a10.971429 10.971429 0 0 0 11.264-11.203048v-161.596952h80.420571c6.436571 0 11.264-3.206095 11.264-9.606096a10.971429 10.971429 0 0 0-11.264-11.190857z m196.230095-1.609143c-4.827429 0-8.045714 3.206095-11.251809 7.996953l-14.482286 36.815238h-96.512l-14.470095-36.815238a12.092952 12.092952 0 0 0-11.264-7.996953c-6.424381 0-12.860952 6.4-12.860952 12.8 0 1.609143 0 3.206095 1.609142 4.803048l65.950477 164.803048c3.206095 7.996952 11.25181 12.8 19.297523 12.8 9.642667 0 16.091429-4.803048 19.297524-12.8L704.341333 51.2c0-1.596952 1.609143-3.206095 1.609143-4.803048 0-6.4-6.436571-12.8-14.482286-12.8z m-73.99619 169.606096l-40.20419-103.996953h82.041904l-41.825524 103.984762z"  horiz-adv-x="1024" />

    
    <glyph glyph-name="icons_doctype_keynot" unicode="&#58897;" d="M142.994286 896C97.938286 896 62.549333 859.196952 62.549333 814.396952v-860.793904C62.561524-91.196952 97.950476-128 142.982095-128h736.670476c45.04381 0 82.041905 36.803048 82.041905 81.603048V571.196952L657.67619 896H142.994286zM961.694476 569.6v-16.006095H755.809524s-101.339429 20.809143-99.718095 108.8c0 0 4.815238-92.793905 98.108952-92.793905h207.481905zM657.688381 896v-233.606095c0-25.6 17.700571-92.793905 98.121143-92.793905h205.884952L657.67619 896zM347.257905 32a12.312381 12.312381 0 0 0-8.045715 3.206095l-70.765714 84.796953-20.906666-22.406096v-54.393904a10.971429 10.971429 0 0 0-11.264-11.203048c-6.436571 0-12.873143 4.803048-12.873143 11.203048V216.003048c0 6.4 6.436571 11.203048 12.873143 11.203047a10.971429 10.971429 0 0 0 11.264-11.215238v-89.6l83.626666 97.609143c3.230476 1.596952 6.436571 3.206095 8.045714 3.206095 6.436571 0 12.873143-4.803048 12.873143-11.215238 0-1.584762-1.609143-4.790857-3.218285-6.387809l-65.950477-75.203048 73.996191-84.796952c1.609143-1.609143 1.609143-3.206095 1.609143-6.4 0-4.803048-4.827429-11.203048-11.264-11.203048z m175.323428 1.596952h-99.718095a17.798095 17.798095 0 0 0-17.700571 17.603048V207.993905c0 9.606095 8.045714 17.603048 17.688381 17.603047h99.730285a10.971429 10.971429 0 0 0 11.264-11.203047c0-4.790857-4.827429-9.593905-11.264-9.593905h-93.293714v-62.403048h91.684571a10.971429 10.971429 0 0 0 11.264-11.190857c0-4.803048-4.827429-9.606095-11.264-9.606095h-91.67238v-67.193905h93.281523c6.436571 0 11.264-3.206095 11.264-9.606095a10.971429 10.971429 0 0 0-11.264-11.203048zM722.041905 209.603048l-64.341334-94.403048v-71.996952c0-6.4-4.815238-11.203048-12.860952-11.203048a10.971429 10.971429 0 0 0-11.264 11.203048V115.2l-65.950476 94.403048c0 1.596952-1.596952 4.790857-1.596953 6.4a10.971429 10.971429 0 0 0 11.25181 11.203047c4.827429 0 8.045714-1.609143 11.264-4.803047l56.295619-86.406096 57.904762 86.406096c1.609143 3.193905 6.436571 4.803048 9.642667 4.803047a10.971429 10.971429 0 0 0 11.264-11.215238c0-1.584762 0-4.790857-1.609143-6.387809z"  horiz-adv-x="1024" />

    
    <glyph glyph-name="icons_doctype_excel" unicode="&#58898;" d="M142.994286 896C97.938286 896 60.952381 859.196952 60.952381 814.396952v-860.793904C60.952381-91.196952 97.950476-128 142.994286-128h736.670476c45.031619 0 82.029714 36.803048 82.029714 81.603048V571.196952L657.67619 896H142.994286zM372.992 33.596952a12.312381 12.312381 0 0 0-8.045714 3.206096l-59.501715 79.993904-61.123047-79.993904a12.312381 12.312381 0 0 0-8.045714-3.206096 10.971429 10.971429 0 0 0-11.264 11.203048c0 1.596952 0 4.803048 1.609142 6.4l62.732191 81.603048-57.904762 78.396952c-1.609143 1.596952-3.218286 3.193905-3.218286 6.4 0 4.803048 4.827429 11.203048 11.264 11.203048 4.827429 0 8.045714-1.596952 9.642667-4.803048l56.307809-73.606095 54.686477 73.606095a8.850286 8.850286 0 0 0 8.045714 4.803048c6.424381 0 12.860952-4.803048 12.860952-11.203048 0-3.206095-1.609143-4.803048-1.609143-6.4l-59.513904-76.8L382.659048 51.2c1.609143-1.596952 3.218286-4.803048 3.218285-6.4 0-6.4-6.436571-11.203048-12.873143-11.203048z m160.853333 1.609143h-86.857143a17.798095 17.798095 0 0 0-17.700571 17.590857V217.6c0 6.4 4.827429 11.203048 12.873143 11.203048a10.971429 10.971429 0 0 0 11.251809-11.203048v-161.596952h80.432762c6.424381 0 11.25181-4.803048 11.25181-9.606096a10.971429 10.971429 0 0 0-11.25181-11.190857z m112.591238-3.206095c-28.952381 0-51.46819 9.593905-67.559619 24.003048-3.218286 1.596952-3.218286 4.803048-3.218285 7.996952 0 6.4 3.218286 12.8 11.264 12.8 1.609143 0 4.827429-1.596952 6.436571-3.206095 12.860952-11.190857 32.170667-20.796952 54.686476-20.796953 33.767619 0 45.031619 19.2 45.031619 33.609143 0 49.590857-114.200381 22.393905-114.200381 89.6 0 31.98781 27.343238 54.393905 65.950477 54.393905 24.124952 0 46.640762-7.996952 61.123047-20.796952a8.789333 8.789333 0 0 0 4.827429-8.009143c0-6.38781-4.827429-12.8-11.264-12.8-1.609143 0-4.827429 1.609143-6.436572 3.206095-14.470095 11.203048-32.170667 16.006095-49.859047 16.006095-24.137143 0-40.216381-11.215238-40.216381-30.403047 0-43.203048 114.200381-17.603048 114.200381-89.6 0-27.196952-19.297524-56.003048-70.765715-56.003048zM961.694476 569.6v-16.006095H755.809524s-102.936381 20.809143-99.718095 108.8c0 0 3.206095-92.793905 96.499809-92.793905H961.706667zM656.091429 896v-233.606095c0-25.6 19.297524-92.793905 99.718095-92.793905h205.884952L656.079238 896z"  horiz-adv-x="1024" />

    
    <glyph glyph-name="icons_doctype_pptco" unicode="&#58899;" d="M142.994286 896C97.938286 896 60.952381 859.196952 60.952381 814.396952v-860.793904C60.952381-91.196952 97.950476-128 142.994286-128h736.670476c45.031619 0 82.029714 36.803048 82.029714 81.603048V571.196952L657.67619 896H142.994286zM961.694476 569.6v-16.006095H755.809524s-101.339429 20.809143-99.718095 108.8c0 0 4.815238-92.793905 98.108952-92.793905h207.481905zM657.688381 896v-233.606095c0-25.6 17.700571-92.793905 98.121143-92.793905h205.884952L657.67619 896zM302.226286 111.993905h-54.686476v-67.193905a10.971429 10.971429 0 0 0-11.264-11.203048c-6.436571 0-12.873143 4.803048-12.873143 11.203048V209.603048c0 9.593905 8.045714 17.603048 17.700571 17.603047h61.123048c38.595048 0 59.513905-25.6 59.513904-57.6 0-32-22.528-57.6-59.513904-57.6z m-3.218286 94.403047h-51.46819v-73.593904h51.46819c22.51581 0 38.595048 15.993905 38.595048 36.803047 0 22.393905-16.079238 36.790857-38.595048 36.790857z m180.150857-94.390857h-54.698667v-67.206095a10.971429 10.971429 0 0 0-11.251809-11.203048 10.971429 10.971429 0 0 0-11.264 11.203048V209.603048c0 9.593905 6.436571 17.603048 16.091429 17.603047h61.123047c38.595048 0 59.513905-25.6 59.513905-57.6 0-32-20.918857-57.6-59.513905-57.6z m-3.218286 94.390857h-49.859047v-73.593904h49.859047c22.51581 0 38.595048 15.993905 38.595048 36.803047 0 22.393905-16.091429 36.790857-38.595048 36.790857z m226.791619 0h-53.077333v-161.596952a10.971429 10.971429 0 0 0-11.264-11.203048c-6.436571 0-12.873143 4.803048-12.873143 11.203048V206.396952H574.049524a10.971429 10.971429 0 0 0-11.25181 11.203048c0 4.803048 4.815238 9.606095 11.25181 9.606095h128.682666a10.971429 10.971429 0 0 0 11.25181-11.215238c0-4.790857-4.815238-9.593905-11.25181-9.593905z"  horiz-adv-x="1024" />

    
    <glyph glyph-name="icons_doctype_pdfco" unicode="&#58900;" d="M142.994286 896C97.938286 896 60.952381 859.196952 60.952381 814.396952v-860.793904C60.952381-91.196952 97.950476-128 142.994286-128h736.670476c45.031619 0 82.029714 36.803048 82.029714 81.603048V571.196952L657.67619 896H142.994286zM961.694476 569.6v-16.006095H755.809524s-101.339429 20.809143-98.121143 107.203047c0 0 3.218286-91.196952 96.512-91.196952h207.481905zM657.688381 896v-233.606095c0-27.184762 17.700571-92.793905 98.121143-92.793905h205.884952L657.67619 896zM300.617143 111.993905h-53.077333v-65.584762c0-6.41219-4.827429-11.215238-12.873143-11.215238a10.971429 10.971429 0 0 0-11.264 11.215238V209.590857c0 9.593905 8.045714 17.603048 17.700571 17.603048h59.513905c38.595048 0 61.123048-27.209143 61.123047-57.6 0-32-22.528-57.6-61.123047-57.6z m-1.609143 94.403047h-51.46819v-73.593904h51.46819c22.51581 0 38.595048 14.396952 38.595048 36.803047 0 22.393905-16.079238 36.790857-38.595048 36.790857zM466.285714 35.206095h-48.249904a17.798095 17.798095 0 0 0-17.700572 17.590857V209.603048c0 9.593905 8.045714 17.603048 17.700572 17.603047h48.249904c59.513905 0 99.718095-41.606095 99.718096-96 0-54.406095-38.595048-96-99.718096-96z m0 171.190857h-41.813333v-148.796952h41.813333c46.640762 0 73.99619 33.596952 73.996191 75.203048 1.596952 39.996952-25.746286 73.593905-73.996191 73.593904z m262.180572 0h-93.293715v-62.390857h91.684572c6.436571 0 9.654857-4.803048 9.654857-11.215238 0-6.38781-4.827429-9.593905-9.654857-9.593905h-91.672381v-76.8c0-6.4-4.839619-11.190857-12.873143-11.190857a10.971429 10.971429 0 0 0-11.264 11.190857V209.603048c0 9.593905 8.045714 17.603048 17.688381 17.603047h99.718095c6.448762 0 9.667048-4.803048 9.667048-11.215238 1.609143-4.790857-3.218286-9.593905-9.654857-9.593905z"  horiz-adv-x="1024" />

    
    <glyph glyph-name="icons_doctype_pages" unicode="&#58901;" d="M142.994286 896C97.938286 896 60.952381 859.196952 60.952381 814.396952v-860.793904C60.952381-91.196952 97.950476-128 142.994286-128h736.670476c45.031619 0 82.029714 36.803048 82.029714 81.603048V571.196952L657.67619 896H142.994286zM961.694476 569.6v-16.006095H755.809524s-101.339429 20.809143-99.718095 108.8c0 0 4.815238-92.793905 98.108952-92.793905h207.481905zM657.688381 896v-233.606095c0-25.6 17.700571-92.793905 98.121143-92.793905h205.884952L657.67619 896zM302.226286 111.993905h-54.686476v-65.584762c0-8.009143-4.827429-12.8-11.264-12.8s-12.873143 4.790857-12.873143 12.8V211.18781c0 7.996952 8.045714 16.006095 17.700571 16.006095h61.123048c38.595048 0 59.513905-25.6 59.513904-57.6 0-32-22.528-57.6-59.513904-57.6z m-3.218286 94.403047h-51.46819v-73.593904h51.46819c22.51581 0 38.595048 15.993905 38.595048 36.803047 0 20.796952-16.079238 36.790857-38.595048 36.790857zM492.007619 32c-54.686476 0-98.108952 39.996952-98.108952 99.206095 0 59.196952 43.422476 99.193905 98.108952 99.193905 28.952381 0 51.46819-11.203048 67.559619-25.6a12.190476 12.190476 0 0 0 3.218286-7.996952 10.971429 10.971429 0 0 0-11.264-11.203048 12.312381 12.312381 0 0 0-8.045714 3.193905c-12.860952 12.8-32.170667 20.809143-51.468191 20.809143-41.813333 0-73.99619-32-73.99619-78.396953 0-44.8 32.182857-78.409143 73.99619-78.409143 24.137143 0 43.434667 11.203048 53.077333 20.796953V113.615238h-57.904762a10.971429 10.971429 0 0 0-11.251809 11.190857c0 4.803048 4.815238 9.606095 11.251809 9.606095h64.341334a17.798095 17.798095 0 0 0 17.688381-17.603047v-38.4c0-28.793905-41.813333-46.396952-77.202286-46.396953z m184.978286 0c-28.952381 0-51.46819 9.593905-67.559619 24.003048-3.218286 1.596952-3.218286 4.803048-3.218286 7.996952 0 6.4 3.218286 12.8 11.264 12.8 1.609143 0 4.827429 0 6.436571-1.596952a77.81181 77.81181 0 0 1 54.686477-22.406096c33.767619 0 45.031619 19.2 45.031619 33.609143 0 49.590857-114.200381 22.393905-114.200381 91.184762 0 32.01219 28.952381 52.809143 65.950476 52.809143 25.721905 0 46.640762-7.996952 62.73219-20.796952a12.190476 12.190476 0 0 0 3.218286-8.009143 10.971429 10.971429 0 0 0-11.264-11.190857c-1.609143 0-4.827429 0-6.436571 1.596952-14.470095 12.8-32.170667 17.603048-49.859048 17.603048-22.51581 0-40.216381-12.8-40.216381-30.403048 0-43.203048 114.200381-19.2 114.200381-91.196952 0-27.196952-17.688381-56.003048-70.765714-56.003048z"  horiz-adv-x="1024" />

    
    <glyph glyph-name="icons_doctype_rtf" unicode="&#58902;" d="M142.994286 896C97.938286 896 60.952381 859.196952 60.952381 814.396952v-860.793904C60.952381-91.196952 97.950476-128 142.994286-128h736.670476c45.031619 0 82.029714 36.803048 82.029714 81.603048V571.196952L657.67619 896H142.994286zM961.694476 569.6v-16.006095H755.809524s-101.339429 20.809143-99.718095 108.8c0 0 4.815238-92.793905 98.108952-92.793905h207.481905zM657.688381 896v-233.606095c0-25.6 17.700571-92.793905 98.121143-92.793905h205.884952L657.67619 896zM311.868952 115.2l41.813334-62.403048c1.621333-3.193905 1.621333-4.803048 1.621333-6.4a10.971429 10.971429 0 0 0-11.264-11.190857c-4.827429 0-8.045714 1.584762-9.642667 4.790857l-48.262095 71.996953h-38.595047v-65.584762a10.971429 10.971429 0 0 0-11.264-11.215238c-6.436571 0-12.873143 4.803048-12.873143 11.215238V211.18781c0 9.593905 8.045714 17.603048 17.700571 17.603047h61.123048c35.376762 0 59.513905-22.406095 59.513904-57.6 0-35.206095-22.528-54.406095-49.859047-56.003047z m-64.329142 92.793905v-73.593905h51.46819c22.51581 0 38.595048 14.396952 38.595048 36.803048 0 20.796952-16.079238 36.803048-38.595048 36.803047h-51.46819z m281.478095 0h-53.077334v-161.596953a10.971429 10.971429 0 0 0-11.264-11.190857c-8.045714 0-12.873143 4.790857-12.873142 11.190857V208.006095H400.335238c-6.424381 0-11.25181 3.193905-11.251809 9.593905a10.971429 10.971429 0 0 0 11.251809 11.203048h128.682667c6.436571 0 9.642667-4.803048 9.642666-11.203048s-3.206095-9.606095-9.642666-9.606095z m165.668571 0h-93.293714v-62.390857h91.684571c4.827429 0 9.654857-4.803048 9.654857-11.203048s-4.827429-11.203048-9.654857-11.203048h-91.672381v-76.8c0-6.4-6.436571-11.190857-12.873142-11.190857a10.971429 10.971429 0 0 0-11.264 11.190857V211.2c0 9.593905 6.436571 17.603048 16.091428 17.603048h101.327238c6.436571 0 9.654857-4.803048 9.654857-11.203048s-3.218286-9.606095-9.654857-9.606095z"  horiz-adv-x="1024" />

    
    <glyph glyph-name="icons_doctype_psd" unicode="&#58903;" d="M142.994286 894.403048C97.938286 894.403048 60.952381 859.184762 60.952381 814.396952v-862.403047C60.952381-92.793905 97.950476-128 142.994286-128h736.670476c45.031619 0 82.029714 35.206095 82.029714 80.006095V569.58781L657.67619 894.403048H142.994286zM961.694476 569.6v-16.006095H755.809524s-101.339429 20.809143-99.718095 108.8c0 0 4.815238-92.793905 98.108952-92.793905h207.481905zM657.688381 896v-233.606095c0-25.6 17.700571-92.793905 98.121143-92.793905h205.884952L657.67619 896zM302.226286 111.993905h-54.686476v-67.193905a10.971429 10.971429 0 0 0-11.264-11.203048c-6.436571 0-12.873143 4.803048-12.873143 11.203048V209.603048c0 9.593905 8.045714 17.603048 17.700571 17.603047h61.123048c38.595048 0 59.513905-25.6 59.513904-57.6 0-32-22.528-57.6-59.513904-57.6z m-3.218286 94.403047h-51.46819v-73.593904h51.46819c22.51581 0 38.595048 15.993905 38.595048 36.803047 0 22.393905-16.079238 36.790857-38.595048 36.790857z m164.059429-174.396952c-28.952381 0-51.46819 9.593905-67.559619 24.003048a12.190476 12.190476 0 0 0-3.206096 7.996952c0 6.4 4.815238 12.8 11.25181 12.8 1.609143 0 4.827429 0 6.436571-3.206095 12.860952-11.190857 32.170667-20.796952 54.686476-20.796953 33.767619 0 45.031619 19.2 45.031619 33.609143 0 49.590857-114.200381 22.393905-114.20038 91.184762 0 32.01219 28.952381 52.809143 65.950476 52.809143 25.734095 0 46.652952-7.996952 62.73219-20.796952a12.190476 12.190476 0 0 0 3.218286-8.009143 10.971429 10.971429 0 0 0-11.264-11.190857c-1.609143 0-4.827429 0-6.436572 1.596952-14.470095 12.8-32.158476 17.603048-49.859047 17.603048-22.51581 0-40.20419-12.8-40.204191-30.403048 0-43.203048 115.809524-19.2 115.809524-91.196952 0-27.196952-19.309714-56.003048-72.387047-56.003048z m180.150857 3.206095h-48.249905a17.798095 17.798095 0 0 0-17.700571 17.590857V209.603048c0 9.593905 8.045714 17.603048 17.700571 17.603047h48.249905c61.123048 0 99.718095-41.606095 99.718095-96 0-54.406095-38.595048-96-99.718095-96z m0 171.190857h-41.813334v-150.393904h41.813334c48.249905 0 75.593143 33.596952 75.593143 75.203047 0 41.593905-27.343238 75.190857-75.593143 75.190857z"  horiz-adv-x="1024" />

    
    <glyph glyph-name="icons_doctype_txt" unicode="&#58904;" d="M144.591238 896C99.559619 896 62.549333 860.793905 62.549333 815.993905v-862.390857C62.561524-91.196952 97.962667-128 144.603429-128H879.664762c45.031619 0 82.029714 36.803048 82.029714 81.603048V571.196952L657.67619 896H144.591238zM961.694476 571.196952v-15.993904H755.809524s-101.339429 19.2-98.121143 107.190857c0 0 3.218286-91.184762 96.512-91.184762h207.481905zM657.688381 896v-231.996952c0-27.209143 17.700571-92.806095 98.121143-92.806096h205.884952L657.67619 896zM363.349333 207.993905H310.247619v-161.596953c0-6.4-4.815238-11.190857-12.860952-11.190857a10.971429 10.971429 0 0 0-11.264 11.190857V208.006095h-53.077334c-4.827429 0-9.654857 3.193905-9.654857 9.593905s4.827429 11.203048 9.654857 11.203048h130.29181c4.815238 0 9.642667-4.803048 9.642667-11.203048s-4.827429-9.606095-9.642667-9.606095z m188.184381-172.78781c-4.827429 0-8.045714 0-9.654857 3.193905l-59.513905 79.993905-61.110857-79.993905c-1.609143-3.206095-4.827429-3.206095-8.045714-3.206095a10.971429 10.971429 0 0 0-11.264 11.215238c0 1.584762 0 4.790857 1.609143 6.387809l62.73219 81.603048-57.904762 78.396952c-1.609143 1.596952-1.609143 3.206095-1.609142 6.4 0 4.803048 3.218286 11.203048 11.264 11.203048 3.218286 0 6.424381-1.596952 9.642666-4.803048l54.686476-73.593904 54.698667 73.593904c3.206095 3.206095 6.424381 4.803048 9.642667 4.803048a10.971429 10.971429 0 0 0 11.264-11.203048c0-3.193905 0-4.803048-1.609143-6.4l-57.904762-76.8 62.73219-83.2c0-1.596952 1.609143-4.803048 1.609143-6.4a10.971429 10.971429 0 0 0-11.264-11.190857z m180.150857 172.78781h-53.077333v-161.596953c0-6.4-4.827429-11.190857-12.873143-11.190857a10.971429 10.971429 0 0 0-11.251809 11.190857V208.006095h-53.089524c-4.815238 0-9.642667 3.193905-9.642667 9.593905s4.815238 11.203048 9.642667 11.203048h130.291809c4.827429 0 9.642667-4.803048 9.642667-11.203048s-4.815238-9.606095-9.642667-9.606095z"  horiz-adv-x="1024" />

    
    <glyph glyph-name="icons_doctype_video" unicode="&#58905;" d="M144.591238 896C99.559619 896 62.549333 859.196952 62.549333 814.396952v-860.793904C62.561524-91.196952 99.57181-128 144.603429-128H879.664762c45.031619 0 82.029714 36.803048 82.029714 81.603048V571.196952L657.67619 896H144.591238zM961.694476 569.6v-16.006095H755.809524s-101.339429 20.809143-99.718095 108.8c0 0 4.815238-92.793905 98.108952-92.793905h207.481905zM657.688381 896v-233.606095c0-25.6 17.700571-92.793905 98.121143-92.793905h205.884952L657.67619 896zM455.021714 167.996952c0-6.4-1.609143-12.8-6.424381-15.993904-3.218286-3.206095-85.248-70.4-191.414857-113.603048-1.609143-1.596952-4.827429-1.596952-8.045714-1.596952-3.206095 0-6.424381 1.596952-9.642667 3.193904-6.436571 3.206095-9.654857 7.996952-11.264 16.006096 0 1.596952-4.827429 54.393905-4.827428 111.993904s4.827429 108.8 4.827428 112.006096c1.609143 6.4 4.827429 11.203048 11.264 15.993904 3.218286 1.609143 6.436571 3.206095 9.642667 3.206096 3.218286 0 6.436571-1.596952 8.045714-3.206096 106.166857-41.593905 188.196571-110.396952 191.414857-113.603047 4.815238-3.193905 6.424381-9.593905 6.424381-14.384762z"  horiz-adv-x="1024" />

    
    <glyph glyph-name="icons_doctype_visio" unicode="&#58906;" d="M142.994286 896C97.938286 896 60.952381 859.196952 60.952381 814.396952v-860.793904C60.952381-91.196952 97.950476-128 142.994286-128h736.670476c45.031619 0 82.029714 36.803048 82.029714 81.603048V571.196952L657.67619 896H142.994286zM961.694476 569.6v-16.006095H755.809524s-101.339429 20.809143-99.718095 108.8c0 0 4.815238-92.793905 98.108952-92.793905h207.481905zM657.688381 896v-233.606095c0-25.6 17.700571-92.793905 98.121143-92.793905h205.884952L657.67619 896zM397.116952 212.796952l-65.950476-164.803047c-3.206095-7.996952-11.25181-12.8-19.297524-12.8h-1.609142c-8.045714 0-16.091429 4.803048-19.297524 12.8l-65.950476 164.815238c-1.609143 1.584762-1.609143 3.193905-1.609143 4.790857 0 6.4 6.436571 12.8 12.873143 12.8 4.827429 0 9.654857-3.193905 12.873142-7.996952l62.72-160 61.123048 160c1.609143 4.803048 6.436571 7.996952 12.873143 7.996952s12.860952-6.4 12.860952-12.8c0-1.596952-1.609143-3.206095-1.609143-4.803048zM448.609524 35.193905c-8.045714 0-12.873143 4.803048-12.873143 11.215238V219.184762c0 6.4 4.827429 11.203048 12.873143 11.203048a10.971429 10.971429 0 0 0 11.251809-11.203048v-172.8a10.971429 10.971429 0 0 0-11.251809-11.190857z m127.061333-1.584762c-28.952381 0-51.46819 9.593905-67.547428 23.990857a8.789333 8.789333 0 0 0-4.827429 7.996952c0 6.4 4.827429 12.8 11.25181 12.8 3.218286 0 4.827429-1.596952 6.436571-3.193904 14.482286-11.203048 32.170667-20.796952 54.686476-20.796953 35.388952 0 45.04381 17.590857 45.04381 33.596953 0 49.603048-114.200381 22.393905-114.200381 89.6 0 32 28.952381 54.393905 67.547428 54.393904 24.137143 0 45.04381-7.996952 61.123048-20.796952 3.218286-3.206095 4.827429-6.4 4.827428-9.606095 0-4.790857-4.827429-11.190857-11.264-11.190857-3.218286 0-4.815238 1.596952-8.045714 3.193904-14.470095 11.203048-32.158476 16.006095-49.859047 16.006096-22.51581 0-38.595048-11.203048-38.595048-30.403048 0-43.203048 114.200381-17.603048 114.200381-89.6 0-28.793905-19.309714-56.003048-70.777905-56.003048z"  horiz-adv-x="1024" />

    
    <glyph glyph-name="icons_doctype_word" unicode="&#58893;" d="M142.994286 896C97.938286 896 60.952381 860.793905 60.952381 815.993905v-862.390857C60.952381-91.196952 97.950476-128 142.994286-128h736.670476c45.031619 0 82.029714 36.803048 82.029714 81.603048V571.196952L657.67619 896H142.994286zM961.694476 569.6v-16.006095H755.809524s-101.339429 20.809143-99.718095 108.8c0 0 4.815238-92.793905 98.108952-92.793905h207.481905zM657.688381 896v-233.606095c0-25.6 17.700571-92.793905 98.121143-92.793905h205.884952L657.67619 896zM289.353143 33.596952h-48.249905a17.798095 17.798095 0 0 0-17.700571 17.603048V209.603048c0 9.593905 8.045714 15.993905 17.700571 15.993904h48.249905c61.123048 0 99.718095-41.593905 99.718095-96 0-54.393905-38.595048-96-99.718095-96z m0 171.203048h-41.813333v-148.796952h41.813333c48.249905 0 75.593143 33.596952 75.593143 73.593904 0 41.606095-27.343238 75.203048-75.580953 75.203048z m233.22819-174.396952c-57.904762 0-96.512 43.190857-96.512 99.193904s38.607238 99.206095 96.512 99.206096c56.295619 0 94.902857-41.606095 94.902857-99.206096 0-56.003048-38.607238-99.193905-94.902857-99.193904z m0 177.603047c-43.422476 0-70.777905-33.609143-70.777904-78.409143 0-44.8 27.355429-76.8 70.777904-76.8 41.813333 0 70.777905 32 70.777905 76.8s-28.952381 78.396952-70.777905 78.396953z m295.960381-6.41219a12.190476 12.190476 0 0 0 3.218286-7.996953 10.971429 10.971429 0 0 0-11.264-11.203047 12.312381 12.312381 0 0 0-8.045714 3.206095c-11.25181 14.396952-30.561524 22.393905-48.249905 22.393905-41.813333 0-73.99619-31.98781-73.996191-78.384762 0-44.81219 32.182857-76.8 73.996191-76.8 17.688381 0 35.388952 6.38781 48.249905 20.796952a8.850286 8.850286 0 0 0 8.045714 4.790857c6.436571 0 11.264-6.4 11.264-12.8 0-3.193905-1.609143-4.803048-3.218286-7.996952-14.482286-16.006095-35.388952-27.196952-64.341333-27.196952-56.295619 0-99.718095 39.996952-99.718095 99.193904s43.422476 99.206095 99.718095 99.206096c28.952381 0 49.859048-11.203048 64.341333-27.196953z"  horiz-adv-x="1024" />

    
    <glyph glyph-name="icons_doctype_xml" unicode="&#58907;" d="M142.994286 896C97.938286 896 60.952381 860.793905 60.952381 815.993905v-862.390857C60.952381-91.196952 97.950476-128 142.994286-128h736.670476c45.031619 0 82.029714 36.803048 82.029714 81.603048V571.196952L657.67619 896H142.994286zM961.694476 569.6v-16.006095H755.809524s-101.339429 20.809143-99.718095 108.8c0 0 4.815238-92.793905 98.108952-92.793905h207.481905zM657.688381 896v-233.606095c0-25.6 17.700571-92.793905 98.121143-92.793905h205.884952L657.67619 896zM372.992 35.206095c-3.218286 0-6.436571 0-9.642667 3.193905l-59.513904 79.993905-59.513905-79.993905c-3.218286-3.206095-6.436571-3.206095-9.654857-3.206095a10.971429 10.971429 0 0 0-11.264 11.215238c0 1.584762 0 4.790857 1.609143 6.387809l62.73219 81.603048-57.904762 78.396952c-1.609143 1.596952-1.609143 3.206095-1.609143 6.4 0 4.803048 4.827429 11.203048 11.264 11.203048 3.218286 0 6.436571-1.596952 9.642667-4.803048l54.698667-73.593904 54.686476 73.593904c3.218286 3.206095 6.424381 4.803048 9.642666 4.803048a10.971429 10.971429 0 0 0 11.264-11.203048c0-3.193905 0-4.803048-1.609142-6.4l-57.904762-76.8 62.73219-83.2c1.609143-1.596952 1.609143-4.803048 1.609143-6.4a10.971429 10.971429 0 0 0-11.264-11.190857z m231.619048 0a10.971429 10.971429 0 0 0-11.25181 11.190857V195.206095L529.017905 38.4c-1.609143-1.596952-3.218286-3.206095-6.436572-3.206095s-4.827429 1.609143-6.436571 3.206095l-64.341333 156.793905v-148.796953a10.971429 10.971429 0 0 0-11.25181-11.190857c-8.045714 0-12.873143 4.790857-12.873143 11.190857V211.2c0 9.593905 9.654857 19.2 20.918857 19.2 8.045714 0 16.091429-4.803048 19.297524-12.8l54.686476-134.4 54.686477 134.4c3.218286 7.996952 11.264 12.8 19.309714 12.8 11.25181 0 20.906667-9.606095 20.906666-19.2v-164.803048c0-6.4-4.827429-11.190857-12.873142-11.190857z m170.496 1.584762h-88.466286a17.798095 17.798095 0 0 0-17.688381 17.615238V219.184762c0 6.4 6.436571 11.203048 12.873143 11.203048a10.971429 10.971429 0 0 0 11.251809-11.203048v-161.596952h82.041905c4.815238 0 9.642667-4.803048 9.642667-9.593905 0-6.41219-4.827429-11.215238-9.654857-11.215238z"  horiz-adv-x="1024" />

    
    <glyph glyph-name="selected-empty-copy" unicode="&#59275;" d="M879.74496013 889.64932015L144.25503987 889.64932015C70.70604786 889.64932015 6.35067985 825.29395214 6.35067985 751.74496013l0-735.48992026c0-73.54899201 64.35536803-137.90436005 137.90436002-137.90436002l735.48992026 0c73.54899201 0 137.90436005 64.35536803 137.90436002 137.90436002L1017.64932015 751.74496013C1017.64932015 825.29395214 953.29395214 889.64932015 879.74496013 889.64932015zM925.71308016 16.25503987000002c0-27.58087197-18.38724802-45.96812001-45.96812003-45.96812003L144.25503987-29.713080160000004c-27.58087197 0-45.96812001 18.38724802-45.96812003 45.96812003L98.28691984 751.74496013c0 27.58087197 18.38724802 45.96812001 45.96812003 45.96812003l735.48992026 0c27.58087197 0 45.96812001-18.38724802 45.96812003-45.96812003L925.71308016 16.25503987000002zM420.06375996 154.15939993999996c-9.19362398 0-27.58087197 0-36.774496 9.193624l-183.87248007 183.87248007c-18.38724802 18.38724802-18.38724802 45.96812001 0 64.35536796s45.96812001 18.38724802 64.35536803 0L420.06375996 264.48288797l330.97046409 330.97046409c18.38724802 18.38724802 45.96812001 18.38724802 64.35536803 0s18.38724802-45.96812001 0-64.355368l-367.74496011-367.74496012C447.64463197 154.15939993999996 429.25738398 154.15939993999996 420.06375996 154.15939993999996z"  horiz-adv-x="1024" />

    


  </font>
</defs>
</svg>
