<?xml version="1.0" encoding="UTF-8"?>
<svg width="74px" height="84px" viewBox="0 0 74 84" version="1.1" xmlns="http://www.w3.org/2000/svg" xmlns:xlink="http://www.w3.org/1999/xlink">
    <!-- Generator: Sketch 51.2 (57519) - http://www.bohemiancoding.com/sketch -->
    <title>icons_doctype_psd</title>
    <desc>Created with Sketch.</desc>
    <defs></defs>
    <g id="FileIcon／文件图标" stroke="none" stroke-width="1" fill="none" fill-rule="evenodd">
        <g id="FileIcon-／文件图标" transform="translate(-1128.000000, -163.000000)" fill-rule="nonzero">
            <g id="icons_doctype_psd" transform="translate(1128.000000, 163.000000)">
                <path d="M6.72916667,0.13125 C3.03472222,0.13125 0,3.01875 0,6.69375 L0,77.4375 C0,81.1125 3.03472222,84 6.72916667,84 L67.1597222,84 C70.8541667,84 73.8888889,81.1125 73.8888889,77.4375 L73.8888889,26.775 L48.9513889,0.13125 L6.72916667,0.13125 L6.72916667,0.13125 Z" id="Shape" fill="#8ECFFF"></path>
                <path d="M73.8888889,26.775 L73.8888889,28.0875 L57,28.0875 C57,28.0875 48.6875,26.38125 48.8194444,19.1625 C48.8194444,19.1625 49.2152778,26.775 56.8680556,26.775 L73.8888889,26.775 Z" id="Shape" fill="#0959B7"></path>
                <path d="M48.9513889,0 L48.9513889,19.1625 C48.9513889,21.2625 50.4027778,26.775 57,26.775 L73.8888889,26.775 L48.9513889,0 Z" id="Shape" fill="#FFFFFF" opacity="0.5"></path>
                <path d="M19.7916667,64.3125 L15.3055556,64.3125 L15.3055556,69.825 C15.3055556,70.35 14.9097222,70.74375 14.3819444,70.74375 C13.8541667,70.74375 13.3263889,70.35 13.3263889,69.825 L13.3263889,56.30625 C13.3263889,55.51875 13.9861111,54.8625 14.7777778,54.8625 L19.7916667,54.8625 C22.9583333,54.8625 24.6736111,56.9625 24.6736111,59.5875 C24.6736111,62.2125 22.8263889,64.3125 19.7916667,64.3125 L19.7916667,64.3125 Z M19.5277778,56.56875 L15.3055556,56.56875 L15.3055556,62.60625 L19.5277778,62.60625 C21.375,62.60625 22.6944444,61.29375 22.6944444,59.5875 C22.6944444,57.75 21.375,56.56875 19.5277778,56.56875 L19.5277778,56.56875 Z M32.9861111,70.875 C30.6111111,70.875 28.7638889,70.0875 27.4444444,68.90625 C27.3125,68.775 27.1805556,68.5125 27.1805556,68.25 C27.1805556,67.725 27.5763889,67.2 28.1041667,67.2 C28.2361111,67.2 28.5,67.2 28.6319444,67.4625 C29.6875,68.38125 31.2708333,69.16875 33.1180556,69.16875 C35.8888889,69.16875 36.8125,67.59375 36.8125,66.4125 C36.8125,62.34375 27.4444444,64.575 27.4444444,58.93125 C27.4444444,56.30625 29.8194444,54.6 32.8541667,54.6 C34.9652778,54.6 36.6805556,55.25625 38,56.30625 C38.1319444,56.4375 38.2638889,56.7 38.2638889,56.9625 C38.2638889,57.4875 37.8680556,57.88125 37.3402778,57.88125 C37.2083333,57.88125 36.9444444,57.88125 36.8125,57.75 C35.625,56.7 34.1736111,56.30625 32.7222222,56.30625 C30.875,56.30625 29.4236111,57.35625 29.4236111,58.8 C29.4236111,62.34375 38.9236111,60.375 38.9236111,66.28125 C38.9236111,68.5125 37.3402778,70.875 32.9861111,70.875 L32.9861111,70.875 Z M47.7638889,70.6125 L43.8055556,70.6125 C43.0138889,70.6125 42.3541667,69.95625 42.3541667,69.16875 L42.3541667,56.30625 C42.3541667,55.51875 43.0138889,54.8625 43.8055556,54.8625 L47.7638889,54.8625 C52.7777778,54.8625 55.9444444,58.275 55.9444444,62.7375 C55.9444444,67.2 52.7777778,70.6125 47.7638889,70.6125 L47.7638889,70.6125 Z M47.7638889,56.56875 L44.3333333,56.56875 L44.3333333,68.90625 L47.7638889,68.90625 C51.7222222,68.90625 53.9652778,66.15 53.9652778,62.7375 C53.9652778,59.325 51.7222222,56.56875 47.7638889,56.56875 L47.7638889,56.56875 Z" id="Shape" fill="#FFFFFF"></path>
            </g>
        </g>
    </g>
</svg>