<?xml version="1.0" encoding="UTF-8"?>
<svg width="74px" height="84px" viewBox="0 0 74 84" version="1.1" xmlns="http://www.w3.org/2000/svg" xmlns:xlink="http://www.w3.org/1999/xlink">
    <!-- Generator: Sketch 51.2 (57519) - http://www.bohemiancoding.com/sketch -->
    <title>icons_doctype_attachment</title>
    <desc>Created with Sketch.</desc>
    <defs></defs>
    <g id="FileIcon／文件图标" stroke="none" stroke-width="1" fill="none" fill-rule="evenodd">
        <g id="FileIcon-／文件图标" transform="translate(-40.000000, -451.000000)" fill-rule="nonzero">
            <g id="icons_doctype_attachment" transform="translate(40.000000, 451.000000)">
                <path d="M6.72916667,4.6629367e-15 C3.03472222,4.6629367e-15 0,2.8875 0,6.5625 L0,77.30625 C0,80.98125 3.03472222,84 6.72916667,84 L67.1597222,84 C70.8541667,84 73.8888889,80.98125 73.8888889,77.30625 L73.8888889,26.64375 L48.9513889,0 L6.72916667,0 L6.72916667,4.6629367e-15 Z" id="Shape" fill="#B1CDE7"></path>
                <path d="M73.8888889,26.775 L73.8888889,28.0875 L57,28.0875 C57,28.0875 48.6875,26.38125 48.8194444,19.1625 C48.8194444,19.1625 49.2152778,26.775 56.8680556,26.775 L73.8888889,26.775 Z" id="Shape" fill="#617F9B"></path>
                <path d="M48.9513889,0 L48.9513889,19.1625 C48.9513889,21.2625 50.4027778,26.775 57,26.775 L73.8888889,26.775 L48.9513889,0 Z" id="Shape" fill="#FFFFFF" opacity="0.5"></path>
                <path d="M35.0972222,54.46875 C36.5486111,52.89375 36.5486111,50.53125 35.0972222,48.95625 C33.6458333,47.38125 31.1388889,47.5125 29.6875,48.95625 L17.5486111,61.03125 C16.0972222,62.475 16.0972222,64.96875 17.5486111,66.4125 C19,67.85625 21.5069444,67.9875 22.9583333,66.4125 L30.4791667,59.0625 C30.875,58.66875 30.875,58.0125 30.4791667,57.61875 C30.0833333,57.225 29.2916667,57.09375 28.8958333,57.61875 L24.1458333,62.2125 C23.4861111,62.86875 22.5625,62.86875 21.9027778,62.2125 C21.2430556,61.55625 21.2430556,60.50625 21.9027778,59.85 L26.5208333,55.25625 C28.2361111,53.55 31.0069444,53.55 32.7222222,55.25625 C34.4375,56.9625 34.4375,59.71875 32.7222222,61.425 L25.3333333,68.775 C22.5625,71.53125 18.0763889,71.53125 15.1736111,68.775 C12.4027778,66.01875 12.4027778,61.55625 15.1736111,58.8 L27.3125,46.725 C30.0833333,43.96875 34.7013889,43.96875 37.4722222,46.725 C40.2430556,49.48125 40.2430556,53.94375 37.4722222,56.7 L36.2847222,57.88125 C36.1527778,56.7 35.7569444,55.51875 34.9652778,54.46875 L35.0972222,54.46875 L35.0972222,54.46875 Z" id="Shape" fill="#FFFFFF"></path>
            </g>
        </g>
    </g>
</svg>