<?xml version="1.0" encoding="UTF-8"?>
<svg width="74px" height="84px" viewBox="0 0 74 84" version="1.1" xmlns="http://www.w3.org/2000/svg" xmlns:xlink="http://www.w3.org/1999/xlink">
    <!-- Generator: Sketch 51.2 (57519) - http://www.bohemiancoding.com/sketch -->
    <title>icons_doctype_image</title>
    <desc>Created with Sketch.</desc>
    <defs></defs>
    <g id="FileIcon／文件图标" stroke="none" stroke-width="1" fill="none" fill-rule="evenodd">
        <g id="FileIcon-／文件图标" transform="translate(-448.000000, -307.000000)" fill-rule="nonzero">
            <g id="icons_doctype_image" transform="translate(448.000000, 307.000000)">
                <path d="M6.72916667,0 C3.03472222,0 0.131944444,3.01875 0.131944444,6.69375 L0.131944444,77.4375 C0.131944444,81.1125 3.03472222,84 6.72916667,84 L67.1597222,84 C70.8541667,84 73.8888889,81.1125 73.8888889,77.4375 L73.8888889,26.775 L48.9513889,0 L6.72916667,0 L6.72916667,0 Z" id="Shape" fill="#91DAC7"></path>
                <path d="M73.8888889,26.775 L73.8888889,28.0875 L57,28.0875 C57,28.0875 48.6875,26.38125 48.8194444,19.1625 C48.8194444,19.1625 49.2152778,26.775 56.8680556,26.775 L73.8888889,26.775 Z" id="Shape" fill="#37BB91"></path>
                <path d="M48.9513889,0 L48.9513889,19.1625 C48.9513889,21.2625 50.4027778,26.775 57,26.775 L73.8888889,26.775 L48.9513889,0 Z" id="Shape" fill="#FFFFFF" opacity="0.5"></path>
                <path d="M13.3263889,70.48125 L13.3263889,43.05 L40.9027778,43.05 L40.9027778,70.48125 L13.3263889,70.48125 L13.3263889,70.48125 Z M38.1319444,45.80625 L16.0972222,45.80625 L16.0972222,62.34375 L38.1319444,62.34375 L38.1319444,45.80625 Z M25.4652778,56.83125 L30.6111111,49.875 L32.3263889,52.63125 L34.0416667,52.10625 L35.3611111,59.45625 L18.0763889,59.45625 L22.6944444,55.125 L25.4652778,56.83125 L25.4652778,56.83125 Z M20.4513889,51.975 C19.2638889,51.975 18.2083333,51.1875 18.2083333,50.00625 C18.2083333,48.95625 19.2638889,48.0375 20.4513889,48.0375 C21.6388889,48.0375 22.5625,48.95625 22.5625,50.00625 C22.5625,51.1875 21.6388889,51.975 20.4513889,51.975 L20.4513889,51.975 Z" id="Shape" fill="#FFFFFF"></path>
            </g>
        </g>
    </g>
</svg>