<?xml version="1.0" encoding="UTF-8"?>
<svg width="74px" height="84px" viewBox="0 0 74 84" version="1.1" xmlns="http://www.w3.org/2000/svg" xmlns:xlink="http://www.w3.org/1999/xlink">
    <!-- Generator: Sketch 51.2 (57519) - http://www.bohemiancoding.com/sketch -->
    <title>icons_doctype_visio</title>
    <desc>Created with Sketch.</desc>
    <defs></defs>
    <g id="FileIcon／文件图标" stroke="none" stroke-width="1" fill="none" fill-rule="evenodd">
        <g id="FileIcon-／文件图标" transform="translate(-584.000000, -163.000000)" fill-rule="nonzero">
            <g id="icons_doctype_visio" transform="translate(584.000000, 163.000000)">
                <path d="M6.72916667,4.6629367e-15 C3.03472222,4.6629367e-15 0,3.01875 0,6.69375 L0,77.30625 C0,80.98125 3.03472222,84 6.72916667,84 L67.1597222,84 C70.8541667,84 73.8888889,80.98125 73.8888889,77.30625 L73.8888889,26.64375 L48.9513889,0 L6.72916667,0 L6.72916667,4.6629367e-15 Z" id="Shape" fill="#AAC5FF"></path>
                <path d="M73.8888889,26.775 L73.8888889,28.0875 L57,28.0875 C57,28.0875 48.6875,26.38125 48.8194444,19.1625 C48.8194444,19.1625 49.2152778,26.775 56.8680556,26.775 L73.8888889,26.775 Z" id="Shape" fill="#5078FF"></path>
                <path d="M48.9513889,0 L48.9513889,19.1625 C48.9513889,21.2625 50.4027778,26.775 57,26.775 L73.8888889,26.775 L48.9513889,0 Z" id="Shape" fill="#FFFFFF" opacity="0.5"></path>
                <path d="M27.5763889,56.04375 L22.1666667,69.5625 C21.9027778,70.21875 21.2430556,70.6125 20.5833333,70.6125 L20.4513889,70.6125 C19.7916667,70.6125 19.1319444,70.21875 18.8680556,69.5625 L13.4583333,56.04375 C13.3263889,55.9125 13.3263889,55.78125 13.3263889,55.65 C13.3263889,55.125 13.8541667,54.6 14.3819444,54.6 C14.7777778,54.6 15.1736111,54.8625 15.4375,55.25625 L20.5833333,68.38125 L25.5972222,55.25625 C25.7291667,54.8625 26.125,54.6 26.6527778,54.6 C27.1805556,54.6 27.7083333,55.125 27.7083333,55.65 C27.7083333,55.78125 27.5763889,55.9125 27.5763889,56.04375 L27.5763889,56.04375 Z M31.7986111,70.6125 C31.1388889,70.6125 30.7430556,70.21875 30.7430556,69.69375 L30.7430556,55.51875 C30.7430556,54.99375 31.1388889,54.6 31.7986111,54.6 C32.3263889,54.6 32.7222222,54.99375 32.7222222,55.51875 L32.7222222,69.69375 C32.7222222,70.21875 32.3263889,70.6125 31.7986111,70.6125 L31.7986111,70.6125 Z M42.2222222,70.74375 C39.8472222,70.74375 38,69.95625 36.6805556,68.775 C36.4166667,68.64375 36.2847222,68.38125 36.2847222,68.11875 C36.2847222,67.59375 36.6805556,67.06875 37.2083333,67.06875 C37.4722222,67.06875 37.6041667,67.2 37.7361111,67.33125 C38.9236111,68.25 40.375,69.0375 42.2222222,69.0375 C45.125,69.0375 45.9166667,67.59375 45.9166667,66.28125 C45.9166667,62.2125 36.5486111,64.44375 36.5486111,58.93125 C36.5486111,56.30625 38.9236111,54.46875 42.0902778,54.46875 C44.0694444,54.46875 45.7847222,55.125 47.1041667,56.175 C47.3680556,56.4375 47.5,56.7 47.5,56.9625 C47.5,57.35625 47.1041667,57.88125 46.5763889,57.88125 C46.3125,57.88125 46.1805556,57.75 45.9166667,57.61875 C44.7291667,56.7 43.2777778,56.30625 41.8263889,56.30625 C39.9791667,56.30625 38.6597222,57.225 38.6597222,58.8 C38.6597222,62.34375 48.0277778,60.24375 48.0277778,66.15 C48.0277778,68.5125 46.4444444,70.74375 42.2222222,70.74375 L42.2222222,70.74375 Z" id="Shape" fill="#FFFFFF"></path>
            </g>
        </g>
    </g>
</svg>