<?xml version="1.0" encoding="UTF-8"?>
<svg width="74px" height="84px" viewBox="0 0 74 84" version="1.1" xmlns="http://www.w3.org/2000/svg" xmlns:xlink="http://www.w3.org/1999/xlink">
    <!-- Generator: Sketch 51.2 (57519) - http://www.bohemiancoding.com/sketch -->
    <title>icons_doctype_pages copy</title>
    <desc>Created with Sketch.</desc>
    <defs></defs>
    <g id="FileIcon／文件图标" stroke="none" stroke-width="1" fill="none" fill-rule="evenodd">
        <g id="FileIcon-／文件图标" transform="translate(-312.000000, -307.000000)" fill-rule="nonzero">
            <g id="icons_doctype_pages-copy" transform="translate(312.000000, 307.000000)">
                <path d="M6.72916667,4.6629367e-15 C3.03472222,4.6629367e-15 0,3.01875 0,6.69375 L0,77.30625 C0,80.98125 3.03472222,84 6.72916667,84 L67.1597222,84 C70.8541667,84 73.8888889,80.98125 73.8888889,77.30625 L73.8888889,26.64375 L48.9513889,0 L6.72916667,0 L6.72916667,4.6629367e-15 Z" id="Shape" fill="#BEBEFF"></path>
                <path d="M73.8888889,26.775 L73.8888889,28.0875 L57,28.0875 C57,28.0875 48.6875,26.38125 48.8194444,19.1625 C48.8194444,19.1625 49.2152778,26.775 56.8680556,26.775 L73.8888889,26.775 Z" id="Shape" fill="#4F4FDA"></path>
                <path d="M48.9513889,0 L48.9513889,19.1625 C48.9513889,21.2625 50.4027778,26.775 57,26.775 L73.8888889,26.775 L48.9513889,0 Z" id="Shape" fill="#FFFFFF" opacity="0.5"></path>
                <path d="M19.7916667,64.3125 L15.3055556,64.3125 L15.3055556,69.69375 C15.3055556,70.35 14.9097222,70.74375 14.3819444,70.74375 C13.8541667,70.74375 13.3263889,70.35 13.3263889,69.69375 L13.3263889,56.175 C13.3263889,55.51875 13.9861111,54.8625 14.7777778,54.8625 L19.7916667,54.8625 C22.9583333,54.8625 24.6736111,56.9625 24.6736111,59.5875 C24.6736111,62.2125 22.8263889,64.3125 19.7916667,64.3125 Z M19.5277778,56.56875 L15.3055556,56.56875 L15.3055556,62.60625 L19.5277778,62.60625 C21.375,62.60625 22.6944444,61.29375 22.6944444,59.5875 C22.6944444,57.88125 21.375,56.56875 19.5277778,56.56875 L19.5277778,56.56875 Z M35.3611111,70.875 C30.875,70.875 27.3125,67.59375 27.3125,62.7375 C27.3125,57.88125 30.875,54.6 35.3611111,54.6 C37.7361111,54.6 39.5833333,55.51875 40.9027778,56.7 C41.0347222,56.83125 41.1666667,57.09375 41.1666667,57.35625 C41.1666667,57.88125 40.7708333,58.275 40.2430556,58.275 C39.9791667,58.275 39.7152778,58.14375 39.5833333,58.0125 C38.5277778,56.9625 36.9444444,56.30625 35.3611111,56.30625 C31.9305556,56.30625 29.2916667,58.93125 29.2916667,62.7375 C29.2916667,66.4125 31.9305556,69.16875 35.3611111,69.16875 C37.3402778,69.16875 38.9236111,68.25 39.7152778,67.4625 L39.7152778,64.18125 L34.9652778,64.18125 C34.4375,64.18125 34.0416667,63.7875 34.0416667,63.2625 C34.0416667,62.86875 34.4375,62.475 34.9652778,62.475 L40.2430556,62.475 C41.0347222,62.475 41.6944444,63.13125 41.6944444,63.91875 L41.6944444,67.06875 C41.6944444,69.43125 38.2638889,70.875 35.3611111,70.875 L35.3611111,70.875 Z M50.5347222,70.875 C48.1597222,70.875 46.3125,70.0875 44.9930556,68.90625 C44.7291667,68.775 44.7291667,68.5125 44.7291667,68.25 C44.7291667,67.725 44.9930556,67.2 45.6527778,67.2 C45.7847222,67.2 46.0486111,67.2 46.1805556,67.33125 C47.2361111,68.38125 48.8194444,69.16875 50.6666667,69.16875 C53.4375,69.16875 54.3611111,67.59375 54.3611111,66.4125 C54.3611111,62.34375 44.9930556,64.575 44.9930556,58.93125 C44.9930556,56.30625 47.3680556,54.6 50.4027778,54.6 C52.5138889,54.6 54.2291667,55.25625 55.5486111,56.30625 C55.6805556,56.4375 55.8125,56.7 55.8125,56.9625 C55.8125,57.4875 55.4166667,57.88125 54.8888889,57.88125 C54.7569444,57.88125 54.4930556,57.88125 54.3611111,57.75 C53.1736111,56.7 51.7222222,56.30625 50.2708333,56.30625 C48.4236111,56.30625 46.9722222,57.35625 46.9722222,58.8 C46.9722222,62.34375 56.3402778,60.375 56.3402778,66.28125 C56.3402778,68.5125 54.8888889,70.875 50.5347222,70.875 L50.5347222,70.875 Z" id="Shape" fill="#FFFFFF"></path>
            </g>
        </g>
    </g>
</svg>