<?xml version="1.0" encoding="UTF-8"?>
<svg width="74px" height="84px" viewBox="0 0 74 84" version="1.1" xmlns="http://www.w3.org/2000/svg" xmlns:xlink="http://www.w3.org/1999/xlink">
    <!-- Generator: Sketch 51.2 (57519) - http://www.bohemiancoding.com/sketch -->
    <title>icons_doctype_txt</title>
    <desc>Created with Sketch.</desc>
    <defs></defs>
    <g id="FileIcon／文件图标" stroke="none" stroke-width="1" fill="none" fill-rule="evenodd">
        <g id="FileIcon-／文件图标" transform="translate(-856.000000, -163.000000)" fill-rule="nonzero">
            <g id="icons_doctype_txt" transform="translate(856.000000, 163.000000)">
                <path d="M6.86111111,4.6629367e-15 C3.16666667,4.6629367e-15 0.131944444,2.8875 0.131944444,6.5625 L0.131944444,77.30625 C0.131944444,80.98125 3.03472222,84 6.86111111,84 L67.1597222,84 C70.8541667,84 73.8888889,80.98125 73.8888889,77.30625 L73.8888889,26.64375 L48.9513889,0 L6.86111111,0 L6.86111111,4.6629367e-15 Z" id="Shape" fill="#F2D971"></path>
                <path d="M73.8888889,26.64375 L73.8888889,27.95625 L57,27.95625 C57,27.95625 48.6875,26.38125 48.9513889,19.1625 C48.9513889,19.1625 49.2152778,26.64375 56.8680556,26.64375 L73.8888889,26.64375 Z" id="Shape" fill="#F7BC04"></path>
                <path d="M48.9513889,0 L48.9513889,19.03125 C48.9513889,21.2625 50.4027778,26.64375 57,26.64375 L73.8888889,26.64375 L48.9513889,0 Z" id="Shape" fill="#FFFFFF" opacity="0.5"></path>
                <path d="M24.8055556,56.4375 L20.4513889,56.4375 L20.4513889,69.69375 C20.4513889,70.21875 20.0555556,70.6125 19.3958333,70.6125 C18.8680556,70.6125 18.4722222,70.21875 18.4722222,69.69375 L18.4722222,56.4375 L14.1180556,56.4375 C13.7222222,56.4375 13.3263889,56.175 13.3263889,55.65 C13.3263889,55.125 13.7222222,54.73125 14.1180556,54.73125 L24.8055556,54.73125 C25.2013889,54.73125 25.5972222,55.125 25.5972222,55.65 C25.5972222,56.175 25.2013889,56.4375 24.8055556,56.4375 L24.8055556,56.4375 Z M40.2430556,70.6125 C39.8472222,70.6125 39.5833333,70.6125 39.4513889,70.35 L34.5694444,63.7875 L29.5555556,70.35 C29.4236111,70.6125 29.1597222,70.6125 28.8958333,70.6125 C28.3680556,70.6125 27.9722222,70.21875 27.9722222,69.69375 C27.9722222,69.5625 27.9722222,69.3 28.1041667,69.16875 L33.25,62.475 L28.5,56.04375 C28.3680556,55.9125 28.3680556,55.78125 28.3680556,55.51875 C28.3680556,55.125 28.6319444,54.6 29.2916667,54.6 C29.5555556,54.6 29.8194444,54.73125 30.0833333,54.99375 L34.5694444,61.03125 L39.0555556,54.99375 C39.3194444,54.73125 39.5833333,54.6 39.8472222,54.6 C40.375,54.6 40.7708333,54.99375 40.7708333,55.51875 C40.7708333,55.78125 40.7708333,55.9125 40.6388889,56.04375 L35.8888889,62.34375 L41.0347222,69.16875 C41.0347222,69.3 41.1666667,69.5625 41.1666667,69.69375 C41.1666667,70.21875 40.7708333,70.6125 40.2430556,70.6125 L40.2430556,70.6125 Z M55.0208333,56.4375 L50.6666667,56.4375 L50.6666667,69.69375 C50.6666667,70.21875 50.2708333,70.6125 49.6111111,70.6125 C49.0833333,70.6125 48.6875,70.21875 48.6875,69.69375 L48.6875,56.4375 L44.3333333,56.4375 C43.9375,56.4375 43.5416667,56.175 43.5416667,55.65 C43.5416667,55.125 43.9375,54.73125 44.3333333,54.73125 L55.0208333,54.73125 C55.4166667,54.73125 55.8125,55.125 55.8125,55.65 C55.8125,56.175 55.4166667,56.4375 55.0208333,56.4375 L55.0208333,56.4375 Z" id="Shape" fill="#FFFFFF"></path>
            </g>
        </g>
    </g>
</svg>