<?xml version="1.0" encoding="UTF-8"?>
<svg width="74px" height="84px" viewBox="0 0 74 84" version="1.1" xmlns="http://www.w3.org/2000/svg" xmlns:xlink="http://www.w3.org/1999/xlink">
    <!-- Generator: Sketch 51.2 (57519) - http://www.bohemiancoding.com/sketch -->
    <title>icons_doctype_pdf copy</title>
    <desc>Created with Sketch.</desc>
    <defs></defs>
    <g id="FileIcon／文件图标" stroke="none" stroke-width="1" fill="none" fill-rule="evenodd">
        <g id="FileIcon-／文件图标" transform="translate(-176.000000, -307.000000)" fill-rule="nonzero">
            <g id="icons_doctype_pdf-copy" transform="translate(176.000000, 307.000000)">
                <path d="M6.72916667,4.6629367e-15 C3.03472222,4.6629367e-15 0,3.01875 0,6.69375 L0,77.30625 C0,80.98125 3.03472222,84 6.72916667,84 L67.1597222,84 C70.8541667,84 73.8888889,80.98125 73.8888889,77.30625 L73.8888889,26.64375 L48.9513889,0 L6.72916667,0 L6.72916667,4.6629367e-15 Z" id="Shape" fill="#84E1FF"></path>
                <path d="M73.8888889,26.775 L73.8888889,28.0875 L57,28.0875 C57,28.0875 48.6875,26.38125 48.9513889,19.29375 C48.9513889,19.29375 49.2152778,26.775 56.8680556,26.775 L73.8888889,26.775 Z" id="Shape" fill="#0F93D0"></path>
                <path d="M48.9513889,0 L48.9513889,19.1625 C48.9513889,21.39375 50.4027778,26.775 57,26.775 L73.8888889,26.775 L48.9513889,0 Z" id="Shape" fill="#FFFFFF" opacity="0.5"></path>
                <path d="M19.6597222,64.3125 L15.3055556,64.3125 L15.3055556,69.69375 C15.3055556,70.21875 14.9097222,70.6125 14.25,70.6125 C13.7222222,70.6125 13.3263889,70.21875 13.3263889,69.69375 L13.3263889,56.30625 C13.3263889,55.51875 13.9861111,54.8625 14.7777778,54.8625 L19.6597222,54.8625 C22.8263889,54.8625 24.6736111,57.09375 24.6736111,59.5875 C24.6736111,62.2125 22.8263889,64.3125 19.6597222,64.3125 L19.6597222,64.3125 Z M19.5277778,56.56875 L15.3055556,56.56875 L15.3055556,62.60625 L19.5277778,62.60625 C21.375,62.60625 22.6944444,61.425 22.6944444,59.5875 C22.6944444,57.75 21.375,56.56875 19.5277778,56.56875 L19.5277778,56.56875 Z M33.25,70.6125 L29.2916667,70.6125 C28.5,70.6125 27.8402778,69.95625 27.8402778,69.16875 L27.8402778,56.30625 C27.8402778,55.51875 28.5,54.8625 29.2916667,54.8625 L33.25,54.8625 C38.1319444,54.8625 41.4305556,58.275 41.4305556,62.7375 C41.4305556,67.2 38.2638889,70.6125 33.25,70.6125 L33.25,70.6125 Z M33.25,56.56875 L29.8194444,56.56875 L29.8194444,68.775 L33.25,68.775 C37.0763889,68.775 39.3194444,66.01875 39.3194444,62.60625 C39.4513889,59.325 37.2083333,56.56875 33.25,56.56875 L33.25,56.56875 Z M54.7569444,56.56875 L47.1041667,56.56875 L47.1041667,61.6875 L54.625,61.6875 C55.1527778,61.6875 55.4166667,62.08125 55.4166667,62.60625 C55.4166667,63.13125 55.0208333,63.39375 54.625,63.39375 L47.1041667,63.39375 L47.1041667,69.69375 C47.1041667,70.21875 46.7083333,70.6125 46.0486111,70.6125 C45.5208333,70.6125 45.125,70.21875 45.125,69.69375 L45.125,56.30625 C45.125,55.51875 45.7847222,54.8625 46.5763889,54.8625 L54.7569444,54.8625 C55.2847222,54.8625 55.5486111,55.25625 55.5486111,55.78125 C55.6805556,56.175 55.2847222,56.56875 54.7569444,56.56875 L54.7569444,56.56875 Z" id="Shape" fill="#FFFFFF"></path>
            </g>
        </g>
    </g>
</svg>