<?xml version="1.0" encoding="UTF-8"?>
<svg width="74px" height="84px" viewBox="0 0 74 84" version="1.1" xmlns="http://www.w3.org/2000/svg" xmlns:xlink="http://www.w3.org/1999/xlink">
    <!-- Generator: Sketch 51.2 (57519) - http://www.bohemiancoding.com/sketch -->
    <title>icons_doctype_rtf</title>
    <desc>Created with Sketch.</desc>
    <defs></defs>
    <g id="FileIcon／文件图标" stroke="none" stroke-width="1" fill="none" fill-rule="evenodd">
        <g id="FileIcon-／文件图标" transform="translate(-992.000000, -163.000000)" fill-rule="nonzero">
            <g id="icons_doctype_rtf" transform="translate(992.000000, 163.000000)">
                <path d="M6.72916667,4.6629367e-15 C3.03472222,4.6629367e-15 0,3.01875 0,6.69375 L0,77.30625 C0,80.98125 3.03472222,84 6.72916667,84 L67.1597222,84 C70.8541667,84 73.8888889,80.98125 73.8888889,77.30625 L73.8888889,26.64375 L48.9513889,0 L6.72916667,0 L6.72916667,4.6629367e-15 Z" id="Shape" fill="#7DD5FF"></path>
                <path d="M73.8888889,26.775 L73.8888889,28.0875 L57,28.0875 C57,28.0875 48.6875,26.38125 48.8194444,19.1625 C48.8194444,19.1625 49.2152778,26.775 56.8680556,26.775 L73.8888889,26.775 Z" id="Shape" fill="#0089E9"></path>
                <path d="M48.9513889,0 L48.9513889,19.1625 C48.9513889,21.2625 50.4027778,26.775 57,26.775 L73.8888889,26.775 L48.9513889,0 Z" id="Shape" fill="#FFFFFF" opacity="0.5"></path>
                <path d="M20.5833333,64.05 L24.0138889,69.16875 C24.1458333,69.43125 24.1458333,69.5625 24.1458333,69.69375 C24.1458333,70.21875 23.75,70.6125 23.2222222,70.6125 C22.8263889,70.6125 22.5625,70.48125 22.4305556,70.21875 L18.4722222,64.3125 L15.3055556,64.3125 L15.3055556,69.69375 C15.3055556,70.21875 14.9097222,70.6125 14.3819444,70.6125 C13.8541667,70.6125 13.3263889,70.21875 13.3263889,69.69375 L13.3263889,56.175 C13.3263889,55.3875 13.9861111,54.73125 14.7777778,54.73125 L19.7916667,54.73125 C22.6944444,54.73125 24.6736111,56.56875 24.6736111,59.45625 C24.6736111,62.34375 22.8263889,63.91875 20.5833333,64.05 Z M15.3055556,56.4375 L15.3055556,62.475 L19.5277778,62.475 C21.375,62.475 22.6944444,61.29375 22.6944444,59.45625 C22.6944444,57.75 21.375,56.4375 19.5277778,56.4375 L15.3055556,56.4375 L15.3055556,56.4375 Z M38.3958333,56.4375 L34.0416667,56.4375 L34.0416667,69.69375 C34.0416667,70.21875 33.6458333,70.6125 33.1180556,70.6125 C32.4583333,70.6125 32.0625,70.21875 32.0625,69.69375 L32.0625,56.4375 L27.8402778,56.4375 C27.3125,56.4375 26.9166667,56.175 26.9166667,55.65 C26.9166667,55.125 27.3125,54.73125 27.8402778,54.73125 L38.3958333,54.73125 C38.9236111,54.73125 39.1875,55.125 39.1875,55.65 C39.1875,56.175 38.9236111,56.4375 38.3958333,56.4375 Z M51.9861111,56.4375 L44.3333333,56.4375 L44.3333333,61.55625 L51.8541667,61.55625 C52.25,61.55625 52.6458333,61.95 52.6458333,62.475 C52.6458333,63 52.25,63.39375 51.8541667,63.39375 L44.3333333,63.39375 L44.3333333,69.69375 C44.3333333,70.21875 43.8055556,70.6125 43.2777778,70.6125 C42.75,70.6125 42.3541667,70.21875 42.3541667,69.69375 L42.3541667,56.175 C42.3541667,55.3875 42.8819444,54.73125 43.6736111,54.73125 L51.9861111,54.73125 C52.5138889,54.73125 52.7777778,55.125 52.7777778,55.65 C52.7777778,56.175 52.5138889,56.4375 51.9861111,56.4375 Z" id="Shape" fill="#FFFFFF"></path>
            </g>
        </g>
    </g>
</svg>