<?xml version="1.0" encoding="UTF-8"?>
<svg width="74px" height="84px" viewBox="0 0 74 84" version="1.1" xmlns="http://www.w3.org/2000/svg" xmlns:xlink="http://www.w3.org/1999/xlink">
    <!-- Generator: Sketch 51.2 (57519) - http://www.bohemiancoding.com/sketch -->
    <title>icons_doctype_ppt copy</title>
    <desc>Created with Sketch.</desc>
    <defs></defs>
    <g id="FileIcon／文件图标" stroke="none" stroke-width="1" fill="none" fill-rule="evenodd">
        <g id="FileIcon-／文件图标" transform="translate(-40.000000, -307.000000)" fill-rule="nonzero">
            <g id="icons_doctype_ppt-copy" transform="translate(40.000000, 307.000000)">
                <path d="M6.72916667,4.6629367e-15 C3.03472222,4.6629367e-15 0,3.01875 0,6.69375 L0,77.30625 C0,80.98125 3.03472222,84 6.72916667,84 L67.1597222,84 C70.8541667,84 73.8888889,80.98125 73.8888889,77.30625 L73.8888889,26.64375 L48.9513889,0 L6.72916667,0 L6.72916667,4.6629367e-15 Z" id="Shape" fill="#FFA997"></path>
                <path d="M73.8888889,26.775 L73.8888889,28.0875 L57,28.0875 C57,28.0875 48.6875,26.38125 48.8194444,19.1625 C48.8194444,19.1625 49.2152778,26.775 56.8680556,26.775 L73.8888889,26.775 Z" id="Shape" fill="#DC3119"></path>
                <path d="M48.9513889,0 L48.9513889,19.1625 C48.9513889,21.2625 50.4027778,26.775 57,26.775 L73.8888889,26.775 L48.9513889,0 Z" id="Shape" fill="#FFFFFF" opacity="0.5"></path>
                <path d="M19.7916667,64.3125 L15.3055556,64.3125 L15.3055556,69.825 C15.3055556,70.35 14.9097222,70.74375 14.3819444,70.74375 C13.8541667,70.74375 13.3263889,70.35 13.3263889,69.825 L13.3263889,56.30625 C13.3263889,55.51875 13.9861111,54.8625 14.7777778,54.8625 L19.7916667,54.8625 C22.9583333,54.8625 24.6736111,56.9625 24.6736111,59.5875 C24.6736111,62.2125 22.8263889,64.3125 19.7916667,64.3125 L19.7916667,64.3125 Z M19.5277778,56.56875 L15.3055556,56.56875 L15.3055556,62.60625 L19.5277778,62.60625 C21.375,62.60625 22.6944444,61.29375 22.6944444,59.5875 C22.6944444,57.75 21.375,56.56875 19.5277778,56.56875 L19.5277778,56.56875 Z M34.3055556,64.3125 L29.8194444,64.3125 L29.8194444,69.825 C29.8194444,70.35 29.4236111,70.74375 28.8958333,70.74375 C28.3680556,70.74375 27.9722222,70.35 27.9722222,69.825 L27.9722222,56.30625 C27.9722222,55.51875 28.5,54.8625 29.2916667,54.8625 L34.3055556,54.8625 C37.4722222,54.8625 39.1875,56.9625 39.1875,59.5875 C39.1875,62.2125 37.4722222,64.3125 34.3055556,64.3125 L34.3055556,64.3125 Z M34.0416667,56.56875 L29.9513889,56.56875 L29.9513889,62.60625 L34.0416667,62.60625 C35.8888889,62.60625 37.2083333,61.29375 37.2083333,59.5875 C37.2083333,57.75 35.8888889,56.56875 34.0416667,56.56875 L34.0416667,56.56875 Z M52.6458333,56.56875 L48.2916667,56.56875 L48.2916667,69.825 C48.2916667,70.35 47.8958333,70.74375 47.3680556,70.74375 C46.8402778,70.74375 46.3125,70.35 46.3125,69.825 L46.3125,56.56875 L42.0902778,56.56875 C41.5625,56.56875 41.1666667,56.175 41.1666667,55.65 C41.1666667,55.25625 41.5625,54.8625 42.0902778,54.8625 L52.6458333,54.8625 C53.1736111,54.8625 53.5694444,55.25625 53.5694444,55.78125 C53.5694444,56.175 53.1736111,56.56875 52.6458333,56.56875 L52.6458333,56.56875 Z" id="Shape" fill="#FFFFFF"></path>
            </g>
        </g>
    </g>
</svg>