<?xml version="1.0" encoding="UTF-8"?>
<svg width="74px" height="84px" viewBox="0 0 74 84" version="1.1" xmlns="http://www.w3.org/2000/svg" xmlns:xlink="http://www.w3.org/1999/xlink">
    <!-- Generator: Sketch 51.2 (57519) - http://www.bohemiancoding.com/sketch -->
    <title>icons_doctype_flash</title>
    <desc>Created with Sketch.</desc>
    <defs></defs>
    <g id="FileIcon／文件图标" stroke="none" stroke-width="1" fill="none" fill-rule="evenodd">
        <g id="FileIcon-／文件图标" transform="translate(-720.000000, -307.000000)" fill-rule="nonzero">
            <g id="icons_doctype_flash" transform="translate(720.000000, 307.000000)">
                <path d="M6.72916667,4.6629367e-15 C3.03472222,4.6629367e-15 0,3.01875 0,6.69375 L0,77.30625 C0,80.98125 3.03472222,84 6.72916667,84 L67.1597222,84 C70.8541667,84 73.8888889,80.98125 73.8888889,77.30625 L73.8888889,26.64375 L48.9513889,0 L6.72916667,0 L6.72916667,4.6629367e-15 Z" id="Shape" fill="#FFA7A7"></path>
                <path d="M73.8888889,26.64375 L73.8888889,27.95625 L57,27.95625 C57,27.95625 48.6875,26.38125 48.8194444,19.1625 C48.8194444,19.1625 49.0833333,26.64375 56.7361111,26.64375 L73.8888889,26.64375 Z" id="Shape" fill="#DE2D2D"></path>
                <path d="M48.9513889,0 L48.9513889,19.1625 C48.9513889,21.2625 50.4027778,26.64375 57,26.64375 L73.8888889,26.64375 L48.9513889,0 Z" id="Shape" fill="#FFFFFF" opacity="0.5"></path>
                <path d="M23.0902778,56.56875 L15.3055556,56.56875 L15.3055556,61.6875 L22.8263889,61.6875 C23.3541667,61.6875 23.75,62.08125 23.75,62.60625 C23.75,63 23.3541667,63.39375 22.8263889,63.39375 L15.3055556,63.39375 L15.3055556,69.825 C15.3055556,70.35 14.9097222,70.74375 14.3819444,70.74375 C13.8541667,70.74375 13.3263889,70.35 13.3263889,69.825 L13.3263889,56.30625 C13.3263889,55.51875 13.9861111,54.8625 14.7777778,54.8625 L23.0902778,54.8625 C23.4861111,54.8625 23.8819444,55.25625 23.8819444,55.78125 C23.8819444,56.175 23.4861111,56.56875 23.0902778,56.56875 L23.0902778,56.56875 Z M35.625,70.6125 L28.5,70.6125 C27.7083333,70.6125 27.0486111,69.95625 27.0486111,69.16875 L27.0486111,55.65 C27.0486111,55.125 27.4444444,54.73125 28.1041667,54.73125 C28.6319444,54.73125 29.0277778,55.125 29.0277778,55.65 L29.0277778,68.90625 L35.625,68.90625 C36.1527778,68.90625 36.5486111,69.16875 36.5486111,69.69375 C36.5486111,70.21875 36.1527778,70.6125 35.625,70.6125 Z M51.7222222,70.74375 C51.3263889,70.74375 51.0625,70.48125 50.7986111,70.0875 L49.6111111,67.06875 L41.6944444,67.06875 L40.5069444,70.0875 C40.375,70.48125 39.9791667,70.74375 39.5833333,70.74375 C39.0555556,70.74375 38.5277778,70.21875 38.5277778,69.69375 C38.5277778,69.5625 38.5277778,69.43125 38.6597222,69.3 L44.0694444,55.78125 C44.3333333,55.125 44.9930556,54.73125 45.6527778,54.73125 C46.4444444,54.73125 46.9722222,55.125 47.2361111,55.78125 L52.7777778,69.3 C52.7777778,69.43125 52.9097222,69.5625 52.9097222,69.69375 C52.9097222,70.21875 52.3819444,70.74375 51.7222222,70.74375 L51.7222222,70.74375 Z M45.6527778,56.83125 L42.3541667,65.3625 L49.0833333,65.3625 L45.6527778,56.83125 Z" id="Shape" fill="#FFFFFF"></path>
            </g>
        </g>
    </g>
</svg>