<?xml version="1.0" encoding="UTF-8"?>
<svg width="74px" height="84px" viewBox="0 0 74 84" version="1.1" xmlns="http://www.w3.org/2000/svg" xmlns:xlink="http://www.w3.org/1999/xlink">
    <!-- Generator: Sketch 51.2 (57519) - http://www.bohemiancoding.com/sketch -->
    <title>icons_doctype_video</title>
    <desc>Created with Sketch.</desc>
    <defs></defs>
    <g id="FileIcon／文件图标" stroke="none" stroke-width="1" fill="none" fill-rule="evenodd">
        <g id="FileIcon-／文件图标" transform="translate(-720.000000, -163.000000)" fill-rule="nonzero">
            <g id="icons_doctype_video" transform="translate(720.000000, 163.000000)">
                <path d="M6.86111111,4.6629367e-15 C3.16666667,4.6629367e-15 0.131944444,3.01875 0.131944444,6.69375 L0.131944444,77.30625 C0.131944444,80.98125 3.16666667,84 6.86111111,84 L67.1597222,84 C70.8541667,84 73.8888889,80.98125 73.8888889,77.30625 L73.8888889,26.64375 L48.9513889,0 L6.86111111,0 L6.86111111,4.6629367e-15 Z" id="Shape" fill="#EEA6FF"></path>
                <path d="M73.8888889,26.775 L73.8888889,28.0875 L57,28.0875 C57,28.0875 48.6875,26.38125 48.8194444,19.1625 C48.8194444,19.1625 49.2152778,26.775 56.8680556,26.775 L73.8888889,26.775 Z" id="Shape" fill="#D767FF"></path>
                <path d="M48.9513889,0 L48.9513889,19.1625 C48.9513889,21.2625 50.4027778,26.775 57,26.775 L73.8888889,26.775 L48.9513889,0 Z" id="Shape" fill="#FFFFFF" opacity="0.5"></path>
                <path d="M32.3263889,59.71875 C32.3263889,60.24375 32.1944444,60.76875 31.7986111,61.03125 C31.5347222,61.29375 24.8055556,66.80625 16.0972222,70.35 C15.9652778,70.48125 15.7013889,70.48125 15.4375,70.48125 C15.1736111,70.48125 14.9097222,70.35 14.6458333,70.21875 C14.1180556,69.95625 13.8541667,69.5625 13.7222222,68.90625 C13.7222222,68.775 13.3263889,64.44375 13.3263889,59.71875 C13.3263889,54.99375 13.7222222,50.79375 13.7222222,50.53125 C13.8541667,50.00625 14.1180556,49.6125 14.6458333,49.21875 C14.9097222,49.0875 15.1736111,48.95625 15.4375,48.95625 C15.7013889,48.95625 15.9652778,49.0875 16.0972222,49.21875 C24.8055556,52.63125 31.5347222,58.275 31.7986111,58.5375 C32.1944444,58.8 32.3263889,59.325 32.3263889,59.71875 Z" id="Shape" fill="#FFFFFF"></path>
            </g>
        </g>
    </g>
</svg>