<?xml version="1.0" encoding="UTF-8"?>
<svg width="74px" height="84px" viewBox="0 0 74 84" version="1.1" xmlns="http://www.w3.org/2000/svg" xmlns:xlink="http://www.w3.org/1999/xlink">
    <!-- Generator: Sketch 51.2 (57519) - http://www.bohemiancoding.com/sketch -->
    <title>icons_doctype_keynote</title>
    <desc>Created with Sketch.</desc>
    <defs></defs>
    <g id="FileIcon／文件图标" stroke="none" stroke-width="1" fill="none" fill-rule="evenodd">
        <g id="FileIcon-／文件图标" transform="translate(-584.000000, -307.000000)" fill-rule="nonzero">
            <g id="icons_doctype_keynote" transform="translate(584.000000, 307.000000)">
                <path d="M6.72916667,4.6629367e-15 C3.03472222,4.6629367e-15 0.131944444,3.01875 0.131944444,6.69375 L0.131944444,77.30625 C0.131944444,80.98125 3.03472222,84 6.72916667,84 L67.1597222,84 C70.8541667,84 73.8888889,80.98125 73.8888889,77.30625 L73.8888889,26.64375 L48.9513889,0 L6.72916667,0 L6.72916667,4.6629367e-15 Z" id="Shape" fill="#F5BC8D"></path>
                <path d="M73.8888889,26.775 L73.8888889,28.0875 L57,28.0875 C57,28.0875 48.6875,26.38125 48.8194444,19.1625 C48.8194444,19.1625 49.2152778,26.775 56.8680556,26.775 L73.8888889,26.775 Z" id="Shape" fill="#D25B1F"></path>
                <path d="M48.9513889,0 L48.9513889,19.1625 C48.9513889,21.2625 50.4027778,26.775 57,26.775 L73.8888889,26.775 L48.9513889,0 Z" id="Shape" fill="#FFFFFF" opacity="0.5"></path>
                <path d="M23.4861111,70.875 C23.2222222,70.875 22.9583333,70.74375 22.8263889,70.6125 L17.0208333,63.65625 L15.3055556,65.49375 L15.3055556,69.95625 C15.3055556,70.48125 14.9097222,70.875 14.3819444,70.875 C13.8541667,70.875 13.3263889,70.48125 13.3263889,69.95625 L13.3263889,55.78125 C13.3263889,55.25625 13.8541667,54.8625 14.3819444,54.8625 C14.9097222,54.8625 15.3055556,55.25625 15.3055556,55.78125 L15.3055556,63.13125 L22.1666667,55.125 C22.4305556,54.99375 22.6944444,54.8625 22.8263889,54.8625 C23.3541667,54.8625 23.8819444,55.25625 23.8819444,55.78125 C23.8819444,55.9125 23.75,56.175 23.6180556,56.30625 L18.2083333,62.475 L24.2777778,69.43125 C24.4097222,69.5625 24.4097222,69.69375 24.4097222,69.95625 C24.4097222,70.35 24.0138889,70.875 23.4861111,70.875 L23.4861111,70.875 Z M37.8680556,70.74375 L29.6875,70.74375 C28.8958333,70.74375 28.2361111,70.0875 28.2361111,69.3 L28.2361111,56.4375 C28.2361111,55.65 28.8958333,54.99375 29.6875,54.99375 L37.8680556,54.99375 C38.3958333,54.99375 38.7916667,55.3875 38.7916667,55.9125 C38.7916667,56.30625 38.3958333,56.7 37.8680556,56.7 L30.2152778,56.7 L30.2152778,61.81875 L37.7361111,61.81875 C38.2638889,61.81875 38.6597222,62.2125 38.6597222,62.7375 C38.6597222,63.13125 38.2638889,63.525 37.7361111,63.525 L30.2152778,63.525 L30.2152778,69.0375 L37.8680556,69.0375 C38.3958333,69.0375 38.7916667,69.3 38.7916667,69.825 C38.7916667,70.35 38.3958333,70.74375 37.8680556,70.74375 L37.8680556,70.74375 Z M54.2291667,56.30625 L48.9513889,64.05 L48.9513889,69.95625 C48.9513889,70.48125 48.5555556,70.875 47.8958333,70.875 C47.3680556,70.875 46.9722222,70.48125 46.9722222,69.95625 L46.9722222,64.05 L41.5625,56.30625 C41.5625,56.175 41.4305556,55.9125 41.4305556,55.78125 C41.4305556,55.25625 41.8263889,54.8625 42.3541667,54.8625 C42.75,54.8625 43.0138889,54.99375 43.2777778,55.25625 L47.8958333,62.34375 L52.6458333,55.25625 C52.7777778,54.99375 53.1736111,54.8625 53.4375,54.8625 C53.9652778,54.8625 54.3611111,55.25625 54.3611111,55.78125 C54.3611111,55.9125 54.3611111,56.175 54.2291667,56.30625 L54.2291667,56.30625 Z" id="Shape" fill="#FFFFFF"></path>
            </g>
        </g>
    </g>
</svg>