<?xml version="1.0" encoding="UTF-8"?>
<svg width="74px" height="84px" viewBox="0 0 74 84" version="1.1" xmlns="http://www.w3.org/2000/svg" xmlns:xlink="http://www.w3.org/1999/xlink">
    <!-- Generator: Sketch 51.2 (57519) - http://www.bohemiancoding.com/sketch -->
    <title>icons_doctype_audio</title>
    <desc>Created with Sketch.</desc>
    <defs></defs>
    <g id="FileIcon／文件图标" stroke="none" stroke-width="1" fill="none" fill-rule="evenodd">
        <g id="FileIcon-／文件图标" transform="translate(-176.000000, -451.000000)" fill-rule="nonzero">
            <g id="icons_doctype_audio" transform="translate(176.000000, 451.000000)">
                <path d="M6.86111111,4.6629367e-15 C3.16666667,4.6629367e-15 0.131944444,3.01875 0.131944444,6.69375 L0.131944444,77.30625 C0.131944444,80.98125 3.16666667,84 6.86111111,84 L67.1597222,84 C70.8541667,84 73.8888889,80.98125 73.8888889,77.30625 L73.8888889,26.64375 L48.9513889,0 L6.86111111,0 L6.86111111,4.6629367e-15 Z" id="Shape" fill="#8FD2F3"></path>
                <path d="M73.8888889,26.775 L73.8888889,28.0875 L57,28.0875 C57,28.0875 48.6875,26.38125 48.9513889,19.1625 C48.9513889,19.1625 49.2152778,26.775 56.8680556,26.775 L73.8888889,26.775 Z" id="Shape" fill="#2987C8"></path>
                <path d="M48.9513889,0 L48.9513889,19.1625 C48.9513889,21.2625 50.4027778,26.775 57,26.775 L73.8888889,26.775 L48.9513889,0 Z" id="Shape" fill="#FFFFFF" opacity="0.5"></path>
                <path d="M39.3194444,44.625 L20.5833333,47.11875 L20.5833333,64.70625 C19.6597222,64.44375 18.4722222,64.3125 17.2847222,64.575 C14.6458333,65.1 12.9305556,66.80625 13.4583333,68.38125 C13.9861111,70.0875 16.4930556,70.875 19.1319444,70.35 C21.5069444,69.95625 23.0902778,68.5125 23.0902778,67.06875 L23.0902778,67.06875 L23.0902778,53.025 L36.8125,51.31875 L36.8125,62.2125 C35.8888889,61.95 34.7013889,61.95 33.5138889,62.2125 C30.7430556,62.7375 29.0277778,64.44375 29.5555556,66.01875 C30.0833333,67.59375 32.5902778,68.5125 35.3611111,67.9875 C37.7361111,67.4625 39.4513889,66.01875 39.3194444,64.575 L39.3194444,44.625 L39.3194444,44.625 Z" id="Shape" fill="#FFFFFF"></path>
            </g>
        </g>
    </g>
</svg>