<?xml version="1.0" encoding="UTF-8"?>
<svg width="74px" height="84px" viewBox="0 0 74 84" version="1.1" xmlns="http://www.w3.org/2000/svg" xmlns:xlink="http://www.w3.org/1999/xlink">
    <!-- Generator: Sketch 51.2 (57519) - http://www.bohemiancoding.com/sketch -->
    <title>icons_doctype_csv</title>
    <desc>Created with Sketch.</desc>
    <defs></defs>
    <g id="FileIcon／文件图标" stroke="none" stroke-width="1" fill="none" fill-rule="evenodd">
        <g id="FileIcon-／文件图标" transform="translate(-448.000000, -163.000000)" fill-rule="nonzero">
            <g id="icons_doctype_csv" transform="translate(448.000000, 163.000000)">
                <path d="M6.72916667,4.6629367e-15 C3.03472222,4.6629367e-15 0,3.01875 0,6.69375 L0,77.30625 C0,80.98125 3.03472222,84 6.72916667,84 L67.1597222,84 C70.8541667,84 73.8888889,80.98125 73.8888889,77.30625 L73.8888889,26.64375 L48.8194444,0 L6.72916667,0 L6.72916667,4.6629367e-15 Z" id="Shape" fill="#8FDE9D"></path>
                <path d="M26.7847222,56.7 C26.9166667,56.83125 27.0486111,57.09375 27.0486111,57.35625 C27.0486111,57.88125 26.6527778,58.275 26.125,58.275 C25.8611111,58.275 25.5972222,58.275 25.4652778,58.0125 C24.5416667,56.9625 22.9583333,56.175 21.5069444,56.175 C18.0763889,56.175 15.4375,58.8 15.4375,62.60625 C15.4375,66.28125 18.0763889,69.0375 21.5069444,69.0375 C22.9583333,69.0375 24.4097222,68.38125 25.4652778,67.2 C25.5972222,67.06875 25.8611111,66.9375 26.125,66.9375 C26.6527778,66.9375 27.0486111,67.33125 27.0486111,67.85625 C27.0486111,68.11875 26.9166667,68.38125 26.7847222,68.5125 C25.5972222,69.825 23.8819444,70.74375 21.5069444,70.74375 C16.8888889,70.74375 13.3263889,67.4625 13.3263889,62.60625 C13.3263889,57.75 16.8888889,54.46875 21.5069444,54.46875 C23.8819444,54.46875 25.5972222,55.3875 26.7847222,56.7 Z M35.7569444,70.74375 C33.3819444,70.74375 31.5347222,69.95625 30.2152778,68.775 C29.9513889,68.64375 29.9513889,68.38125 29.9513889,68.11875 C29.9513889,67.59375 30.2152778,67.06875 30.875,67.06875 C31.0069444,67.06875 31.2708333,67.2 31.4027778,67.33125 C32.4583333,68.25 34.0416667,69.0375 35.8888889,69.0375 C38.6597222,69.0375 39.5833333,67.4625 39.5833333,66.28125 C39.5833333,62.2125 30.2152778,64.44375 30.2152778,58.8 C30.2152778,56.30625 32.4583333,54.46875 35.625,54.46875 C37.6041667,54.46875 39.4513889,55.125 40.7708333,56.175 C40.9027778,56.30625 41.0347222,56.56875 41.0347222,56.83125 C41.0347222,57.35625 40.6388889,57.75 40.1111111,57.75 C39.9791667,57.75 39.7152778,57.75 39.5833333,57.61875 C38.3958333,56.7 36.9444444,56.175 35.4930556,56.175 C33.5138889,56.175 32.1944444,57.225 32.1944444,58.66875 C32.1944444,62.2125 41.5625,60.24375 41.5625,66.15 C41.5625,68.38125 39.9791667,70.74375 35.7569444,70.74375 Z M58.1875,56.04375 L52.6458333,69.5625 C52.3819444,70.21875 51.8541667,70.6125 51.1944444,70.6125 L51.0625,70.6125 C50.4027778,70.6125 49.7430556,70.21875 49.4791667,69.5625 L44.0694444,56.04375 C43.9375,55.9125 43.9375,55.78125 43.9375,55.65 C43.9375,55.125 44.3333333,54.6 44.9930556,54.6 C45.3888889,54.6 45.7847222,54.8625 45.9166667,55.25625 L51.0625,68.38125 L56.2083333,55.25625 C56.3402778,54.8625 56.7361111,54.6 57.1319444,54.6 C57.7916667,54.6 58.3194444,55.125 58.3194444,55.65 C58.3194444,55.78125 58.1875,55.9125 58.1875,56.04375 L58.1875,56.04375 Z" id="Shape" fill="#FFFFFF"></path>
                <path d="M73.8888889,26.775 L73.8888889,28.0875 L57,28.0875 C57,28.0875 48.6875,26.38125 48.9513889,19.1625 C48.9513889,19.1625 49.2152778,26.775 56.8680556,26.775 L73.8888889,26.775 Z" id="Shape" fill="#52C261"></path>
                <path d="M48.9513889,0 L48.9513889,19.1625 C48.9513889,21.2625 50.4027778,26.775 57,26.775 L73.8888889,26.775 L48.9513889,0 Z" id="Shape" fill="#FFFFFF" opacity="0.5"></path>
            </g>
        </g>
    </g>
</svg>