<?xml version="1.0" encoding="UTF-8"?>
<svg width="74px" height="84px" viewBox="0 0 74 84" version="1.1" xmlns="http://www.w3.org/2000/svg" xmlns:xlink="http://www.w3.org/1999/xlink">
    <!-- Generator: Sketch 51.2 (57519) - http://www.bohemiancoding.com/sketch -->
    <title>icons_doctype_exe</title>
    <desc>Created with Sketch.</desc>
    <defs></defs>
    <g id="FileIcon／文件图标" stroke="none" stroke-width="1" fill="none" fill-rule="evenodd">
        <g id="FileIcon-／文件图标" transform="translate(-856.000000, -307.000000)" fill-rule="nonzero">
            <g id="icons_doctype_exe" transform="translate(856.000000, 307.000000)">
                <path d="M6.72916667,4.6629367e-15 C3.03472222,4.6629367e-15 0,3.01875 0,6.69375 L0,77.30625 C0,80.98125 3.03472222,84 6.72916667,84 L67.1597222,84 C70.8541667,84 73.8888889,80.98125 73.8888889,77.30625 L73.8888889,26.64375 L48.9513889,0 L6.72916667,0 L6.72916667,4.6629367e-15 Z" id="Shape" fill="#B4D4F2"></path>
                <path d="M73.8888889,26.775 L73.8888889,28.0875 L57,28.0875 C57,28.0875 48.6875,26.38125 48.8194444,19.29375 C48.8194444,19.29375 49.0833333,26.775 56.7361111,26.775 L73.8888889,26.775 Z" id="Shape" fill="#617F9B"></path>
                <path d="M48.9513889,0 L48.9513889,19.1625 C48.9513889,21.2625 50.4027778,26.775 57,26.775 L73.8888889,26.775 L48.9513889,0 Z" id="Shape" fill="#FFFFFF" opacity="0.5"></path>
                <path d="M23.0902778,70.74375 L14.7777778,70.74375 C13.9861111,70.74375 13.3263889,70.0875 13.3263889,69.3 L13.3263889,56.4375 C13.3263889,55.65 13.9861111,54.99375 14.7777778,54.99375 L23.0902778,54.99375 C23.4861111,54.99375 23.8819444,55.3875 23.8819444,55.9125 C23.8819444,56.4375 23.4861111,56.7 23.0902778,56.7 L15.3055556,56.7 L15.3055556,61.81875 L22.8263889,61.81875 C23.3541667,61.81875 23.75,62.2125 23.75,62.7375 C23.75,63.2625 23.3541667,63.525 22.8263889,63.525 L15.3055556,63.525 L15.3055556,69.0375 L23.0902778,69.0375 C23.4861111,69.0375 23.8819444,69.43125 23.8819444,69.825 C23.8819444,70.35 23.4861111,70.74375 23.0902778,70.74375 L23.0902778,70.74375 Z M39.0555556,70.875 C38.6597222,70.875 38.3958333,70.875 38.2638889,70.6125 L33.3819444,64.05 L28.3680556,70.6125 C28.2361111,70.875 27.9722222,70.875 27.7083333,70.875 C27.1805556,70.875 26.7847222,70.48125 26.7847222,69.95625 C26.7847222,69.825 26.7847222,69.5625 26.9166667,69.43125 L32.0625,62.7375 L27.3125,56.30625 C27.1805556,56.175 27.0486111,56.04375 27.0486111,55.78125 C27.0486111,55.3875 27.4444444,54.8625 28.1041667,54.8625 C28.3680556,54.8625 28.6319444,54.99375 28.7638889,55.25625 L33.3819444,61.29375 L37.8680556,55.25625 C38,54.99375 38.2638889,54.8625 38.6597222,54.8625 C39.0555556,54.8625 39.5833333,55.25625 39.5833333,55.78125 C39.5833333,56.04375 39.5833333,56.175 39.4513889,56.30625 L34.7013889,62.60625 L39.7152778,69.43125 C39.8472222,69.5625 39.9791667,69.825 39.9791667,69.95625 C39.9791667,70.48125 39.4513889,70.875 39.0555556,70.875 Z M53.1736111,70.74375 L44.9930556,70.74375 C44.2013889,70.74375 43.5416667,70.0875 43.5416667,69.3 L43.5416667,56.4375 C43.5416667,55.65 44.2013889,54.99375 44.9930556,54.99375 L53.1736111,54.99375 C53.7013889,54.99375 54.0972222,55.3875 54.0972222,55.9125 C54.0972222,56.4375 53.7013889,56.7 53.1736111,56.7 L45.5208333,56.7 L45.5208333,61.81875 L53.0416667,61.81875 C53.5694444,61.81875 53.9652778,62.2125 53.9652778,62.7375 C53.9652778,63.2625 53.5694444,63.525 53.0416667,63.525 L45.5208333,63.525 L45.5208333,69.0375 L53.1736111,69.0375 C53.7013889,69.0375 54.0972222,69.43125 54.0972222,69.825 C54.0972222,70.35 53.7013889,70.74375 53.1736111,70.74375 L53.1736111,70.74375 Z" id="Shape" fill="#FFFFFF"></path>
            </g>
        </g>
    </g>
</svg>