<?xml version="1.0" encoding="UTF-8"?>
<svg width="74px" height="84px" viewBox="0 0 74 84" version="1.1" xmlns="http://www.w3.org/2000/svg" xmlns:xlink="http://www.w3.org/1999/xlink">
    <!-- Generator: Sketch 51.2 (57519) - http://www.bohemiancoding.com/sketch -->
    <title>icons_doctype_word</title>
    <desc>Created with Sketch.</desc>
    <defs></defs>
    <g id="FileIcon／文件图标" stroke="none" stroke-width="1" fill="none" fill-rule="evenodd">
        <g id="FileIcon-／文件图标" transform="translate(-312.000000, -163.000000)" fill-rule="nonzero">
            <g id="icons_doctype_word" transform="translate(312.000000, 163.000000)">
                <path d="M6.72916667,4.6629367e-15 C3.03472222,4.6629367e-15 0,2.8875 0,6.5625 L0,77.30625 C0,80.98125 3.03472222,84 6.72916667,84 L67.1597222,84 C70.8541667,84 73.8888889,80.98125 73.8888889,77.30625 L73.8888889,26.64375 L48.9513889,0 L6.72916667,0 L6.72916667,4.6629367e-15 Z" id="Shape" fill="#77DDFF"></path>
                <path d="M73.8888889,26.775 L73.8888889,28.0875 L57,28.0875 C57,28.0875 48.6875,26.38125 48.8194444,19.1625 C48.8194444,19.1625 49.2152778,26.775 56.8680556,26.775 L73.8888889,26.775 Z" id="Shape" fill="#32BEFF"></path>
                <path d="M48.9513889,0 L48.9513889,19.1625 C48.9513889,21.2625 50.4027778,26.775 57,26.775 L73.8888889,26.775 L48.9513889,0 Z" id="Shape" fill="#FFFFFF" opacity="0.5"></path>
                <path d="M18.7361111,70.74375 L14.7777778,70.74375 C13.9861111,70.74375 13.3263889,70.0875 13.3263889,69.3 L13.3263889,56.30625 C13.3263889,55.51875 13.9861111,54.99375 14.7777778,54.99375 L18.7361111,54.99375 C23.75,54.99375 26.9166667,58.40625 26.9166667,62.86875 C26.9166667,67.33125 23.75,70.74375 18.7361111,70.74375 Z M18.7361111,56.7 L15.3055556,56.7 L15.3055556,68.90625 L18.7361111,68.90625 C22.6944444,68.90625 24.9375,66.15 24.9375,62.86875 C24.9375,59.45625 22.6944444,56.7 18.7361111,56.7 L18.7361111,56.7 Z M37.8680556,71.00625 C33.1180556,71.00625 29.9513889,67.4625 29.9513889,62.86875 C29.9513889,58.275 33.1180556,54.73125 37.8680556,54.73125 C42.4861111,54.73125 45.6527778,58.14375 45.6527778,62.86875 C45.6527778,67.4625 42.4861111,71.00625 37.8680556,71.00625 Z M37.8680556,56.4375 C34.3055556,56.4375 32.0625,59.19375 32.0625,62.86875 C32.0625,66.54375 34.3055556,69.16875 37.8680556,69.16875 C41.2986111,69.16875 43.6736111,66.54375 43.6736111,62.86875 C43.6736111,59.19375 41.2986111,56.4375 37.8680556,56.4375 L37.8680556,56.4375 Z M62.1458333,56.9625 C62.2777778,57.09375 62.4097222,57.35625 62.4097222,57.61875 C62.4097222,58.14375 62.0138889,58.5375 61.4861111,58.5375 C61.2222222,58.5375 60.9583333,58.40625 60.8263889,58.275 C59.9027778,57.09375 58.3194444,56.4375 56.8680556,56.4375 C53.4375,56.4375 50.7986111,59.0625 50.7986111,62.86875 C50.7986111,66.54375 53.4375,69.16875 56.8680556,69.16875 C58.3194444,69.16875 59.7708333,68.64375 60.8263889,67.4625 C60.9583333,67.2 61.2222222,67.06875 61.4861111,67.06875 C62.0138889,67.06875 62.4097222,67.59375 62.4097222,68.11875 C62.4097222,68.38125 62.2777778,68.5125 62.1458333,68.775 C60.9583333,70.0875 59.2430556,71.00625 56.8680556,71.00625 C52.25,71.00625 48.6875,67.725 48.6875,62.86875 C48.6875,58.0125 52.25,54.73125 56.8680556,54.73125 C59.2430556,54.73125 60.9583333,55.65 62.1458333,56.9625 Z" id="Shape" fill="#FFFFFF"></path>
            </g>
        </g>
    </g>
</svg>