<?xml version="1.0" encoding="UTF-8"?>
<svg width="74px" height="84px" viewBox="0 0 74 84" version="1.1" xmlns="http://www.w3.org/2000/svg" xmlns:xlink="http://www.w3.org/1999/xlink">
    <!-- Generator: Sketch 51.2 (57519) - http://www.bohemiancoding.com/sketch -->
    <title>icons_doctype_excel</title>
    <desc>Created with Sketch.</desc>
    <defs></defs>
    <g id="FileIcon／文件图标" stroke="none" stroke-width="1" fill="none" fill-rule="evenodd">
        <g id="FileIcon-／文件图标" transform="translate(-992.000000, -307.000000)" fill-rule="nonzero">
            <g id="icons_doctype_excel" transform="translate(992.000000, 307.000000)">
                <path d="M6.72916667,4.6629367e-15 C3.03472222,4.6629367e-15 0,3.01875 0,6.69375 L0,77.30625 C0,80.98125 3.03472222,84 6.72916667,84 L67.1597222,84 C70.8541667,84 73.8888889,80.98125 73.8888889,77.30625 L73.8888889,26.64375 L48.9513889,0 L6.72916667,0 L6.72916667,4.6629367e-15 Z" id="Shape" fill="#8FDE9D"></path>
                <path d="M25.5972222,70.74375 C25.3333333,70.74375 25.0694444,70.6125 24.9375,70.48125 L20.0555556,63.91875 L15.0416667,70.48125 C14.9097222,70.6125 14.6458333,70.74375 14.3819444,70.74375 C13.8541667,70.74375 13.4583333,70.35 13.4583333,69.825 C13.4583333,69.69375 13.4583333,69.43125 13.5902778,69.3 L18.7361111,62.60625 L13.9861111,56.175 C13.8541667,56.04375 13.7222222,55.9125 13.7222222,55.65 C13.7222222,55.25625 14.1180556,54.73125 14.6458333,54.73125 C15.0416667,54.73125 15.3055556,54.8625 15.4375,55.125 L20.0555556,61.1625 L24.5416667,55.125 C24.6736111,54.8625 24.9375,54.73125 25.2013889,54.73125 C25.7291667,54.73125 26.2569444,55.125 26.2569444,55.65 C26.2569444,55.9125 26.125,56.04375 26.125,56.175 L21.2430556,62.475 L26.3888889,69.3 C26.5208333,69.43125 26.6527778,69.69375 26.6527778,69.825 C26.6527778,70.35 26.125,70.74375 25.5972222,70.74375 L25.5972222,70.74375 Z M38.7916667,70.6125 L31.6666667,70.6125 C30.875,70.6125 30.2152778,69.95625 30.2152778,69.16875 L30.2152778,55.65 C30.2152778,55.125 30.6111111,54.73125 31.2708333,54.73125 C31.7986111,54.73125 32.1944444,55.125 32.1944444,55.65 L32.1944444,68.90625 L38.7916667,68.90625 C39.3194444,68.90625 39.7152778,69.3 39.7152778,69.69375 C39.7152778,70.21875 39.3194444,70.6125 38.7916667,70.6125 Z M48.0277778,70.875 C45.6527778,70.875 43.8055556,70.0875 42.4861111,68.90625 C42.2222222,68.775 42.2222222,68.5125 42.2222222,68.25 C42.2222222,67.725 42.4861111,67.2 43.1458333,67.2 C43.2777778,67.2 43.5416667,67.33125 43.6736111,67.4625 C44.7291667,68.38125 46.3125,69.16875 48.1597222,69.16875 C50.9305556,69.16875 51.8541667,67.59375 51.8541667,66.4125 C51.8541667,62.34375 42.4861111,64.575 42.4861111,59.0625 C42.4861111,56.4375 44.7291667,54.6 47.8958333,54.6 C49.875,54.6 51.7222222,55.25625 52.9097222,56.30625 C53.1736111,56.4375 53.3055556,56.7 53.3055556,56.9625 C53.3055556,57.4875 52.9097222,58.0125 52.3819444,58.0125 C52.25,58.0125 51.9861111,57.88125 51.8541667,57.75 C50.6666667,56.83125 49.2152778,56.4375 47.7638889,56.4375 C45.7847222,56.4375 44.4652778,57.35625 44.4652778,58.93125 C44.4652778,62.475 53.8333333,60.375 53.8333333,66.28125 C53.8333333,68.5125 52.25,70.875 48.0277778,70.875 L48.0277778,70.875 Z" id="Shape" fill="#FFFFFF"></path>
                <path d="M73.8888889,26.775 L73.8888889,28.0875 L57,28.0875 C57,28.0875 48.5555556,26.38125 48.8194444,19.1625 C48.8194444,19.1625 49.0833333,26.775 56.7361111,26.775 L73.8888889,26.775 Z" id="Shape" fill="#349C42"></path>
                <path d="M48.8194444,0 L48.8194444,19.1625 C48.8194444,21.2625 50.4027778,26.775 57,26.775 L73.8888889,26.775 L48.8194444,0 Z" id="Shape" fill="#FFFFFF" opacity="0.5"></path>
            </g>
        </g>
    </g>
</svg>