<?xml version="1.0" encoding="UTF-8"?>
<svg width="74px" height="84px" viewBox="0 0 74 84" version="1.1" xmlns="http://www.w3.org/2000/svg" xmlns:xlink="http://www.w3.org/1999/xlink">
    <!-- Generator: Sketch 51.2 (57519) - http://www.bohemiancoding.com/sketch -->
    <title>icons_doctype_xml</title>
    <desc>Created with Sketch.</desc>
    <defs></defs>
    <g id="FileIcon／文件图标" stroke="none" stroke-width="1" fill="none" fill-rule="evenodd">
        <g id="FileIcon-／文件图标" transform="translate(-176.000000, -163.000000)" fill-rule="nonzero">
            <g id="icons_doctype_xml" transform="translate(176.000000, 163.000000)">
                <path d="M6.72916667,4.6629367e-15 C3.03472222,4.6629367e-15 0,2.8875 0,6.5625 L0,77.30625 C0,80.98125 3.03472222,84 6.72916667,84 L67.1597222,84 C70.8541667,84 73.8888889,80.98125 73.8888889,77.30625 L73.8888889,26.64375 L48.9513889,0 L6.72916667,0 L6.72916667,4.6629367e-15 Z" id="Shape" fill="#FFAA71"></path>
                <path d="M73.8888889,26.775 L73.8888889,28.0875 L57,28.0875 C57,28.0875 48.6875,26.38125 48.8194444,19.1625 C48.8194444,19.1625 49.2152778,26.775 56.8680556,26.775 L73.8888889,26.775 Z" id="Shape" fill="#FB5C1B"></path>
                <path d="M48.9513889,0 L48.9513889,19.1625 C48.9513889,21.2625 50.4027778,26.775 57,26.775 L73.8888889,26.775 L48.9513889,0 Z" id="Shape" fill="#FFFFFF" opacity="0.5"></path>
                <path d="M25.5972222,70.6125 C25.3333333,70.6125 25.0694444,70.6125 24.8055556,70.35 L19.9236111,63.7875 L15.0416667,70.35 C14.7777778,70.6125 14.5138889,70.6125 14.25,70.6125 C13.7222222,70.6125 13.3263889,70.21875 13.3263889,69.69375 C13.3263889,69.5625 13.3263889,69.3 13.4583333,69.16875 L18.6041667,62.475 L13.8541667,56.04375 C13.7222222,55.9125 13.7222222,55.78125 13.7222222,55.51875 C13.7222222,55.125 14.1180556,54.6 14.6458333,54.6 C14.9097222,54.6 15.1736111,54.73125 15.4375,54.99375 L19.9236111,61.03125 L24.4097222,54.99375 C24.6736111,54.73125 24.9375,54.6 25.2013889,54.6 C25.7291667,54.6 26.125,54.99375 26.125,55.51875 C26.125,55.78125 26.125,55.9125 25.9930556,56.04375 L21.2430556,62.34375 L26.3888889,69.16875 C26.5208333,69.3 26.5208333,69.5625 26.5208333,69.69375 C26.5208333,70.21875 26.125,70.6125 25.5972222,70.6125 Z M44.5972222,70.6125 C44.0694444,70.6125 43.6736111,70.21875 43.6736111,69.69375 L43.6736111,57.4875 L38.3958333,70.35 C38.2638889,70.48125 38.1319444,70.6125 37.8680556,70.6125 C37.6041667,70.6125 37.4722222,70.48125 37.3402778,70.35 L32.0625,57.4875 L32.0625,69.69375 C32.0625,70.21875 31.6666667,70.6125 31.1388889,70.6125 C30.4791667,70.6125 30.0833333,70.21875 30.0833333,69.69375 L30.0833333,56.175 C30.0833333,55.3875 30.875,54.6 31.7986111,54.6 C32.4583333,54.6 33.1180556,54.99375 33.3819444,55.65 L37.8680556,66.675 L42.3541667,55.65 C42.6180556,54.99375 43.2777778,54.6 43.9375,54.6 C44.8611111,54.6 45.6527778,55.3875 45.6527778,56.175 L45.6527778,69.69375 C45.6527778,70.21875 45.2569444,70.6125 44.5972222,70.6125 Z M58.5833333,70.48125 L51.3263889,70.48125 C50.5347222,70.48125 49.875,69.825 49.875,69.0375 L49.875,55.51875 C49.875,54.99375 50.4027778,54.6 50.9305556,54.6 C51.4583333,54.6 51.8541667,54.99375 51.8541667,55.51875 L51.8541667,68.775 L58.5833333,68.775 C58.9791667,68.775 59.375,69.16875 59.375,69.5625 C59.375,70.0875 58.9791667,70.48125 58.5833333,70.48125 L58.5833333,70.48125 Z" id="Shape" fill="#FFFFFF"></path>
            </g>
        </g>
    </g>
</svg>