<?xml version="1.0" encoding="UTF-8"?>
<svg width="74px" height="84px" viewBox="0 0 74 84" version="1.1" xmlns="http://www.w3.org/2000/svg" xmlns:xlink="http://www.w3.org/1999/xlink">
    <!-- Generator: Sketch 51.2 (57519) - http://www.bohemiancoding.com/sketch -->
    <title>icons_doctype_eps</title>
    <desc>Created with Sketch.</desc>
    <defs></defs>
    <g id="FileIcon／文件图标" stroke="none" stroke-width="1" fill="none" fill-rule="evenodd">
        <g id="FileIcon-／文件图标" transform="translate(-1128.000000, -307.000000)" fill-rule="nonzero">
            <g id="icons_doctype_eps" transform="translate(1128.000000, 307.000000)">
                <path d="M6.72916667,4.6629367e-15 C3.03472222,4.6629367e-15 0,3.01875 0,6.69375 L0,77.30625 C0,80.98125 3.03472222,84 6.72916667,84 L67.1597222,84 C70.8541667,84 73.8888889,80.98125 73.8888889,77.30625 L73.8888889,26.64375 L48.9513889,0 L6.72916667,0 L6.72916667,4.6629367e-15 Z" id="Shape" fill="#F9CB7E"></path>
                <path d="M22.9583333,70.74375 L14.7777778,70.74375 C13.9861111,70.74375 13.3263889,70.0875 13.3263889,69.3 L13.3263889,56.4375 C13.3263889,55.65 13.9861111,54.99375 14.7777778,54.99375 L22.9583333,54.99375 C23.4861111,54.99375 23.8819444,55.3875 23.8819444,55.9125 C23.8819444,56.30625 23.4861111,56.7 22.9583333,56.7 L15.3055556,56.7 L15.3055556,61.81875 L22.8263889,61.81875 C23.3541667,61.81875 23.75,62.2125 23.75,62.7375 C23.75,63.13125 23.3541667,63.525 22.8263889,63.525 L15.3055556,63.525 L15.3055556,69.0375 L22.9583333,69.0375 C23.4861111,69.0375 23.8819444,69.43125 23.8819444,69.825 C23.8819444,70.35 23.4861111,70.74375 22.9583333,70.74375 L22.9583333,70.74375 Z M33.7777778,64.44375 L29.4236111,64.44375 L29.4236111,69.95625 C29.4236111,70.48125 29.0277778,70.875 28.5,70.875 C27.8402778,70.875 27.4444444,70.48125 27.4444444,69.95625 L27.4444444,56.4375 C27.4444444,55.65 28.1041667,54.99375 28.8958333,54.99375 L33.7777778,54.99375 C37.0763889,54.99375 38.7916667,57.225 38.7916667,59.71875 C38.7916667,62.34375 36.9444444,64.44375 33.7777778,64.44375 Z M33.6458333,56.7 L29.4236111,56.7 L29.4236111,62.7375 L33.6458333,62.7375 C35.4930556,62.7375 36.8125,61.55625 36.8125,59.71875 C36.8125,58.0125 35.4930556,56.7 33.6458333,56.7 L33.6458333,56.7 Z M47.1041667,71.00625 C44.7291667,71.00625 42.8819444,70.21875 41.5625,69.0375 C41.2986111,68.90625 41.2986111,68.64375 41.2986111,68.38125 C41.2986111,67.85625 41.5625,67.33125 42.2222222,67.33125 C42.3541667,67.33125 42.6180556,67.4625 42.75,67.59375 C43.8055556,68.5125 45.3888889,69.3 47.2361111,69.3 C50.0069444,69.3 50.9305556,67.725 50.9305556,66.54375 C50.9305556,62.475 41.5625,64.70625 41.5625,59.0625 C41.5625,56.56875 43.9375,54.73125 46.9722222,54.73125 C49.0833333,54.73125 50.7986111,55.3875 52.1180556,56.4375 C52.25,56.56875 52.3819444,56.83125 52.3819444,57.09375 C52.3819444,57.61875 51.9861111,58.14375 51.4583333,58.14375 C51.3263889,58.14375 51.0625,58.0125 50.9305556,57.88125 C49.7430556,56.9625 48.2916667,56.56875 46.8402778,56.56875 C44.9930556,56.56875 43.5416667,57.4875 43.5416667,59.0625 C43.5416667,62.60625 52.9097222,60.50625 52.9097222,66.4125 C52.9097222,68.64375 51.4583333,71.00625 47.1041667,71.00625 L47.1041667,71.00625 Z" id="Shape" fill="#FFFFFF"></path>
                <path d="M73.8888889,26.775 L73.8888889,28.0875 L57,28.0875 C53.8333333,28.0875 48.6875,26.38125 48.9513889,19.1625 C48.9513889,19.1625 49.2152778,26.775 56.8680556,26.775 L73.8888889,26.775 Z" id="Shape" fill="#FFB446"></path>
                <path d="M48.9513889,0 L48.9513889,19.1625 C48.9513889,21.2625 50.4027778,26.775 57,26.775 L73.8888889,26.775 L48.9513889,0 Z" id="Shape" fill="#FFFFFF" opacity="0.5"></path>
            </g>
        </g>
    </g>
</svg>