<?xml version="1.0" encoding="UTF-8"?>
<svg width="74px" height="84px" viewBox="0 0 74 84" version="1.1" xmlns="http://www.w3.org/2000/svg" xmlns:xlink="http://www.w3.org/1999/xlink">
    <!-- Generator: Sketch 51.2 (57519) - http://www.bohemiancoding.com/sketch -->
    <title>icons_doctyp_zip</title>
    <desc>Created with Sketch.</desc>
    <defs></defs>
    <g id="FileIcon／文件图标" stroke="none" stroke-width="1" fill="none" fill-rule="evenodd">
        <g id="FileIcon-／文件图标" transform="translate(-40.000000, -163.000000)" fill-rule="nonzero">
            <g id="icons_doctyp_zip" transform="translate(40.000000, 163.000000)">
                <path d="M6.73928571,4.6629367e-15 C3.03928571,4.6629367e-15 0,2.8875 0,6.5625 L0,77.30625 C0,80.98125 3.03928571,84 6.73928571,84 L67.2607143,84 C70.9607143,84 74,80.98125 74,77.30625 L74,26.64375 L49.025,0 L6.73928571,0 L6.73928571,4.6629367e-15 Z" id="Shape" fill="#A9D6FF"></path>
                <path d="M74,26.6764706 L74,28 L57.1589389,28 C57.1589389,28 48.8699791,26.2794118 49.0015499,19 C49.0015499,19 49.3962623,26.6764706 57.0273681,26.6764706 L74,26.6764706 Z" id="Shape" fill="#87C5FF"></path>
                <path d="M49,0 L49,19.3235294 C49,21.4411765 50.4550265,27 57.0687831,27 L74,27 L49,0 Z" id="Shape" fill="#FFFFFF" opacity="0.5"></path>
                <path d="M23.956,70.8688525 L14.056,70.8688525 C13.528,70.8688525 13,70.4754098 13,69.8196721 C13,69.557377 13.132,69.295082 13.264,69.1639344 L21.976,56.8360656 L13.792,56.8360656 C13.396,56.8360656 13,56.442623 13,55.9180328 C13,55.5245902 13.396,55.1311475 13.792,55.1311475 L23.692,55.1311475 C24.22,55.1311475 24.616,55.5245902 24.616,56.1803279 C24.616,56.442623 24.616,56.704918 24.484,56.8360656 L15.64,69.1639344 L23.956,69.1639344 C24.484,69.1639344 24.88,69.557377 24.88,69.9508197 C24.88,70.4754098 24.484,70.8688525 23.956,70.8688525 Z M29.236,71 C28.708,71 28.312,70.6065574 28.312,70.0819672 L28.312,55.9180328 C28.312,55.3934426 28.708,55 29.368,55 C29.896,55 30.292,55.3934426 30.292,55.9180328 L30.292,70.0819672 C30.292,70.6065574 29.896,71 29.236,71 Z M40.984,64.5737705 L36.628,64.5737705 L36.628,70.0819672 C36.628,70.6065574 36.1,71 35.572,71 C35.044,71 34.648,70.6065574 34.648,70.0819672 L34.648,56.5737705 C34.648,55.7868852 35.176,55.1311475 35.968,55.1311475 L40.984,55.1311475 C44.152,55.1311475 46,57.3606557 46,59.852459 C46,62.3442623 44.152,64.5737705 40.984,64.5737705 L40.984,64.5737705 Z M40.72,56.8360656 L36.628,56.8360656 L36.628,62.8688525 L40.72,62.8688525 C42.568,62.8688525 43.888,61.6885246 43.888,59.852459 C43.888,58.147541 42.568,56.8360656 40.72,56.8360656 L40.72,56.8360656 Z" id="Shape" fill="#FFFFFF"></path>
            </g>
        </g>
    </g>
</svg>